<?xml version="1.0" encoding="utf-8"?>
<!-- Generator: Adobe Illustrator 27.5.0, SVG Export Plug-In . SVG Version: 6.00 Build 0)  -->
<svg version="1.1" xmlns="http://www.w3.org/2000/svg" xmlns:xlink="http://www.w3.org/1999/xlink" x="0px" y="0px"
	 viewBox="0 0 500 500" style="enable-background:new 0 0 500 500;" xml:space="preserve">
<g id="Background_Complete">
	<g>
		<path style="fill:#F5F5F5;" d="M31.018,212.126c1.405,1.05,35.524,36.627,35.524,36.627l2.588-15.044l32.837,24.176
			l-39.969-45.243l-2.46,16.561L31.018,212.126z"/>
	</g>
	<g>
		<path style="fill:#EBEBEB;" d="M442.083,303.031c-0.839-0.054-23.862-5.418-23.862-5.418l2.898,6.722l-19.523-1.118l27.904,7.716
			l-3.347-7.298L442.083,303.031z"/>
	</g>
	<g>
		<path style="fill:#EBEBEB;" d="M86.736,284.359c-0.839-0.055-23.858-5.435-23.858-5.435l2.893,6.724l-19.523-1.133l27.899,7.737
			l-3.342-7.301L86.736,284.359z"/>
	</g>
	<g>
		<path style="fill:#EBEBEB;" d="M402.899,444.068c-0.986-0.517-25.954-19.372-25.954-19.372l-0.105,9.688l-23.016-11.84
			l29.609,24.324l-0.128-10.626L402.899,444.068z"/>
	</g>
	<g>
		<path style="fill:#F5F5F5;" d="M454.751,223.985c-1.598,0.787-49.512,15.255-49.512,15.255l12.417,9.276l-37.01,18.564
			l59.357-15.305l-13.849-9.86L454.751,223.985z"/>
	</g>
	<g>
		<path style="fill:#F5F5F5;" d="M112.251,404.319c-1.598,0.787-49.512,15.255-49.512,15.255l12.417,9.276l-37.009,18.564
			l59.357-15.305l-13.849-9.86L112.251,404.319z"/>
	</g>
	<g>
		<path style="fill:#EBEBEB;" d="M325.972,145.115c-0.465,1.06-18.221,28.314-18.221,28.314l10.055-0.589l-10.621,24.723
			l23.093-32.46l-11.011,0.898L325.972,145.115z"/>
	</g>
	<g>
		<g>
			<path style="fill:#F5F5F5;" d="M388.075,190.178c3.506-1.196,5.241-5.93,3.339-9.108c-1.902-3.178-6.894-3.886-9.605-1.361
				c-1.734-4.22-3.469-8.44-5.203-12.66l-5.025,4.34c0.44,1.683,0.881,3.366,1.321,5.049c-2.148,0.342-4.075,1.845-4.929,3.845
				c-0.854,2-0.608,4.432,0.631,6.219c-3.624,0.083-7.577,0.927-9.807,3.784c-2.176,2.788-2.031,7.003-0.024,9.915
				c2.007,2.912,5.589,4.527,9.125,4.597c3.536,0.07,7.001-1.273,9.902-3.297c2.903,3.012,8.381,2.929,11.193-0.169
				C391.802,198.237,391.353,192.776,388.075,190.178z"/>
		</g>
		<g>
			<path style="fill:#F5F5F5;" d="M433.273,52.789c-1.606-3.165-3.596-6.358-6.721-8.041c-3.125-1.683-7.645-1.235-9.47,1.81
				c-1.887-4.693-7.454-7.178-12.481-6.618c-5.027,0.56-9.478,3.61-12.953,7.286c-1.692,1.79-3.265,3.879-3.576,6.323
				c-0.169,1.329,0.179,2.753,0.908,3.865c-2.228-0.698-4.995-0.046-6.55,1.788c-2.279,2.689-2.015,6.95,0.035,9.817
				c2.051,2.867,5.522,4.459,9.009,4.976c1.654,0.245,3.407,0.299,4.845,1.152c1.929,1.145,2.844,3.527,2.833,5.771
				c-0.011,2.243-0.359,9.895-0.161,12.265h8.886c0.494-3.357,2.719-11.198,3.029-13.955c2.278,1.87,5.62,2.34,8.325,1.168
				c2.705-1.171,4.65-3.929,4.845-6.87c0.098-1.485,0-3.377,1.35-4.002c0.875-0.406,1.884,0.007,2.835,0.169
				c3.612,0.616,6.947-2.777,7.528-6.395C436.37,59.679,434.931,56.056,433.273,52.789z"/>
		</g>
		<g>
			<g>
				<g>
					<path style="fill:#EBEBEB;" d="M398.729,86.352c0,0-3.682,19.2-2.367,25.249c1.315,6.049,4.208,6.049,4.208,6.049
						s0.263,3.288,1.184,8.153c0.921,4.866,3.551,6.575,1.973,13.019c0,0-11.572-2.762-15.78,6.181
						c-4.208,8.942-3.814,18.542,1.578,23.802c5.392,5.26,13.927,15.478,33.139,9.6c16.899-5.171,25.361-17.791,28.051-33.373
						c2.64-15.291-5.17-46.449-38.177-39.743c0,0-4.34,0.395-3.551-4.997c0.789-5.392,1.052-14.86,1.052-14.86L398.729,86.352z"/>
				</g>
				<g>
					<path style="fill:#EBEBEB;" d="M389.514,145.16c0,0-4.354-2.364-9.579-3.235c-3.2-0.533-12.317,1.617-13.188,11.072
						c-0.871,9.455,3.359,22.767,3.359,22.767l10.077-2.737c0,0-2.221-8.822-2.613-14.564c-0.373-5.466,3.213-5.317,6.088-4.064
						c4.852,2.115,4.238,5.441,4.238,5.441L389.514,145.16z"/>
				</g>
				<g>
					<g>
						<path style="fill:#E0E0E0;" d="M406.306,108.904c0.047,0.073-0.551,0.49-1.38,1.3c-0.83,0.806-1.853,2.052-2.64,3.629
							c-0.78,1.581-1.153,3.15-1.291,4.299c-0.143,1.15-0.113,1.879-0.2,1.885c-0.056,0.007-0.219-0.72-0.167-1.918
							c0.047-1.192,0.378-2.85,1.192-4.498c0.82-1.645,1.939-2.911,2.859-3.67C405.599,109.166,406.277,108.855,406.306,108.904z"/>
					</g>
				</g>
				<g>
					<g>
						<path style="fill:#E0E0E0;" d="M415.561,148.068c-0.134,0.109-2.098-2.875-5.61-5.387c-3.486-2.551-6.934-3.482-6.872-3.644
							c0.015-0.059,0.892,0.094,2.242,0.583c1.348,0.485,3.153,1.353,4.935,2.639c1.778,1.29,3.168,2.733,4.05,3.862
							C415.193,147.25,415.612,148.035,415.561,148.068z"/>
					</g>
				</g>
				<g>
					<g>
						<path style="fill:#E0E0E0;" d="M384.925,155.009c-0.057,0.008-0.243-0.763-0.251-2.04c-0.011-1.273,0.219-3.051,0.91-4.883
							c0.697-1.83,1.704-3.314,2.556-4.259c0.852-0.951,1.503-1.405,1.54-1.361c0.133,0.11-2.281,2.22-3.609,5.805
							C384.689,151.834,385.098,155.015,384.925,155.009z"/>
					</g>
				</g>
			</g>
		</g>
		<g>
			<path style="fill:#F5F5F5;" d="M376.446,83.818c-1.558-1.882-4.485-2.461-6.642-1.315c-2.157,1.146-3.315,3.896-2.627,6.241
				c-2.132,0.178-4.019,1.973-4.304,4.093c-0.285,2.12,1.061,4.349,3.07,5.084c2.009,0.735,4.476-0.099,5.626-1.902
				c0.534,3.192,4.616,5.194,7.467,3.662c2.851-1.532,3.435-6.041,1.068-8.248c2.597-0.361,4.343-3.571,3.234-5.948
				c-1.109-2.376-4.691-3.1-6.636-1.341"/>
		</g>
		<g>
			<path style="fill:#F5F5F5;" d="M406.487,189.657c-1.95,0.701-2.607,3.629-1.143,5.096c1.464,1.467,4.393,0.816,5.098-1.133
				c0.705-1.949-1.13-4.323-3.194-4.132"/>
		</g>
		<g>
			<path style="fill:#F5F5F5;" d="M366.26,66.437c-1.95,0.701-2.607,3.629-1.143,5.096c1.464,1.467,4.393,0.816,5.098-1.133
				c0.705-1.949-1.13-4.323-3.194-4.132"/>
		</g>
		<g>
			<g>
				<path style="fill:#FFFFFF;" d="M389.808,162.098c-0.027,0.017-0.229-0.243-0.531-0.755c-0.303-0.511-0.681-1.29-1.018-2.302
					c-0.684-2.003-1.077-5.071-0.162-8.242c0.92-3.171,2.891-5.555,4.538-6.883c0.826-0.676,1.561-1.133,2.09-1.403
					c0.528-0.272,0.838-0.383,0.852-0.355c0.049,0.086-1.148,0.645-2.701,2.037c-1.546,1.367-3.394,3.701-4.278,6.749
					c-0.879,3.048-0.563,6.008,0.014,7.99C389.182,160.94,389.896,162.052,389.808,162.098z"/>
			</g>
		</g>
		<g>
			<g>
				<path style="fill:#FFFFFF;" d="M406.239,126.429c-0.04,0.035-0.608-0.532-1.21-1.668c-0.604-1.127-1.161-2.863-1.19-4.835
					c-0.021-1.973,0.492-3.722,1.068-4.864c0.574-1.151,1.127-1.731,1.168-1.698c0.074,0.051-0.364,0.7-0.832,1.848
					c-0.472,1.143-0.903,2.821-0.884,4.707c0.029,1.886,0.501,3.553,1.002,4.683C405.858,125.738,406.313,126.376,406.239,126.429z"
					/>
			</g>
		</g>
		<g>
			<g>
				<path style="fill:#FFFFFF;" d="M398.753,104.139c-0.129,0.019-0.441-2.372,0.091-5.268c0.514-2.9,1.642-5.031,1.756-4.968
					c0.145,0.061-0.744,2.235-1.243,5.06C398.837,101.785,398.911,104.133,398.753,104.139z"/>
			</g>
		</g>
		<g>
			<g>
				<path style="fill:#FFFFFF;" d="M368.923,157.799c-0.118,0.051-0.704-2.248,0.051-4.986c0.727-2.747,2.392-4.436,2.468-4.332
					c0.133,0.094-1.278,1.852-1.966,4.468C368.753,155.555,369.086,157.785,368.923,157.799z"/>
			</g>
		</g>
	</g>
</g>
<g id="Background_Simple" style="display:none;">
	<g style="display:inline;">
		<path style="fill:#F5F5F5;" d="M415.123,104.76l-2.241-3.693c-18.893-31.133-53.051-49.901-89.066-47.624
			c-4.629,0.293-9.239,0.919-13.787,1.893c-32.744,7.009-61.236,31.771-73.045,63.483c-6.945,18.651-8.886,40.124-22.066,54.928
			c-17.154,19.267-46.276,19.872-71.88,19.073c-25.604-0.798-54.746-0.117-71.816,19.225
			c-10.691,12.114-14.088,29.341-13.226,45.564c2.282,42.951,32.211,81.356,70.274,100.445
			c38.062,19.089,82.876,20.799,124.533,12.402c58.356-11.764,113.853-44.069,147.21-93.966
			C433.371,226.594,441.813,158.615,415.123,104.76z"/>
	</g>
	<g style="display:inline;">
		<circle style="fill:#F5F5F5;" cx="408.221" cy="383.751" r="39.195"/>
	</g>
</g>
<g id="Desk">
	<g>
		<g>
			<path style="fill:#263238;" d="M474.731,476.621c0,0.288-100.624,0.521-224.72,0.521c-124.14,0-224.742-0.233-224.742-0.521
				c0-0.288,100.602-0.521,224.742-0.521C374.107,476.101,474.731,476.334,474.731,476.621z"/>
		</g>
	</g>
</g>
<g id="Speech_Bubble">
	<g>
		<g>
			<g>
				<g>
					<g>
						<g>
							<g>
								<g>
									<g>
										<g>
											<g>
												<g>
													<g>
														<polygon style="fill:#FFFFFF;" points="106.758,73.951 85.405,51.841 80.099,86.814 51.492,85.845 69.393,109.353 
															51.38,132.992 81.209,127.111 85.521,157.123 109.636,138.855 140.046,154.778 133.39,124.056 167.892,118.624 
															141.057,102.788 156.701,75.806 129.884,86.292 126.623,53.013 														"/>
													</g>
													<g>
														<g>
															<path style="fill:#263238;" d="M106.758,73.951c0,0,0.443-0.489,1.306-1.411c0.869-0.925,2.149-2.288,3.824-4.072
																c3.359-3.564,8.298-8.803,14.647-15.538l0.182-0.193l0.026,0.264c0.899,9.03,2.018,20.277,3.312,33.275l-0.233-0.143
																c8.037-3.152,17.087-6.702,26.806-10.513l0.535-0.21l-0.288,0.497c-4.828,8.342-10.087,17.427-15.624,26.993
																l-0.08-0.305c8.543,5.035,17.524,10.33,26.843,15.823l0.576,0.34l-0.661,0.104
																c-11.004,1.736-22.577,3.562-34.501,5.443l0.207-0.303c2.123,9.79,4.37,20.151,6.663,30.721l0.117,0.54l-0.49-0.256
																c-8.423-4.41-17.321-9.068-26.345-13.792c-1.358-0.711-2.714-1.421-4.066-2.129l0.278-0.023
																c-8.174,6.191-16.225,12.289-24.117,18.266l-0.349,0.264l-0.062-0.433c-1.468-10.235-2.905-20.253-4.305-30.013
																l0.297,0.211c-10.257,2.018-20.21,3.977-29.831,5.87l-0.623,0.122l0.385-0.504
																c6.251-8.195,12.269-16.083,18.025-23.629l0,0.273c-6.316-8.307-12.275-16.144-17.884-23.521l-0.26-0.342
																l0.429,0.015c10.385,0.362,19.882,0.693,28.606,0.997l-0.18,0.149c2.11-13.767,3.904-25.478,5.358-34.965
																l0.038-0.247l0.173,0.18c6.899,7.187,12.209,12.72,15.802,16.464c1.792,1.874,3.155,3.3,4.077,4.264
																C106.29,73.445,106.758,73.951,106.758,73.951s-0.467-0.462-1.387-1.402c-0.927-0.951-2.298-2.355-4.1-4.203
																c-3.628-3.734-8.99-9.251-15.955-16.419l0.211-0.067c-1.425,9.491-3.186,21.208-5.254,34.981l-0.023,0.155
																l-0.157-0.005c-8.724-0.287-18.222-0.599-28.607-0.941l0.169-0.327c5.62,7.369,11.59,15.197,17.918,23.495
																l0.104,0.136l-0.104,0.137c-5.748,7.552-11.757,15.446-18,23.647l-0.238-0.382c9.62-1.9,19.572-3.866,29.827-5.891
																l0.26-0.051l0.038,0.262c1.404,9.76,2.845,19.777,4.318,30.011l-0.411-0.169c7.891-5.979,15.941-12.078,24.114-18.27
																l0.132-0.1l0.146,0.077c1.352,0.708,2.707,1.418,4.066,2.129c9.024,4.726,17.921,9.385,26.343,13.796l-0.372,0.284
																c-2.288-10.571-4.531-20.933-6.65-30.724l-0.057-0.261l0.264-0.041c11.925-1.873,23.499-3.691,34.504-5.419
																l-0.085,0.444c-9.313-5.503-18.289-10.807-26.827-15.851l-0.191-0.113l0.111-0.192
																c5.551-9.558,10.823-18.635,15.663-26.97l0.247,0.288c-9.727,3.792-18.784,7.323-26.827,10.459l-0.212,0.082
																l-0.022-0.226c-1.254-13.001-2.34-24.252-3.211-33.284l0.208,0.071c-6.414,6.717-11.403,11.942-14.797,15.496
																c-1.685,1.758-2.973,3.101-3.846,4.013C107.201,73.505,106.758,73.951,106.758,73.951z"/>
														</g>
													</g>
												</g>
											</g>
										</g>
									</g>
								</g>
							</g>
						</g>
					</g>
					<g>
						<g>
							<g>
								<g>
									<g>
										<path style="fill:#FFFFFF;" d="M168.949,138.767c5.194,6.824-2.517,14.535-9.34,9.34l0,0
											C154.409,141.283,162.124,133.567,168.949,138.767z"/>
									</g>
									<g>
										<g>
											<path style="fill:#263238;" d="M168.949,138.767c-0.027,0.028-0.519-0.26-1.381-0.757
												c-0.913-0.379-2.324-0.948-4.096-0.687c-0.218,0.037-0.441,0.074-0.668,0.112c-0.221,0.063-0.439,0.157-0.666,0.235
												c-0.469,0.126-0.874,0.436-1.327,0.681c-0.826,0.619-1.592,1.444-2.092,2.496c-0.464,1.064-0.645,2.297-0.474,3.546
												c0.173,1.261,0.812,2.445,1.564,3.546c1.021,0.676,2.267,1.376,3.509,1.53c1.249,0.172,2.482-0.008,3.547-0.471
												c1.052-0.501,1.878-1.266,2.497-2.092c0.245-0.453,0.556-0.858,0.682-1.327c0.079-0.227,0.172-0.445,0.236-0.666
												c0.038-0.227,0.076-0.45,0.112-0.668c0.261-1.772-0.307-3.183-0.685-4.096
												C169.208,139.286,168.921,138.794,168.949,138.767c0.013-0.013,0.101,0.093,0.261,0.31
												c0.156,0.218,0.398,0.54,0.675,0.977c0.443,0.906,1.097,2.352,0.871,4.238c-0.033,0.232-0.068,0.47-0.103,0.712
												c-0.062,0.236-0.154,0.471-0.233,0.714c-0.127,0.503-0.444,0.943-0.702,1.431c-0.644,0.896-1.522,1.731-2.651,2.283
												c-1.141,0.515-2.478,0.722-3.826,0.541c-0.331-0.073-0.666-0.146-1.003-0.221c-0.333-0.086-0.641-0.253-0.966-0.379
												l-0.484-0.205l-0.445-0.281l-0.446-0.286l-0.224-0.144l-0.112-0.072l-0.056-0.036l-0.028-0.018l-0.014-0.009
												l-0.007-0.005c0.037,0.037-0.058-0.055-0.05-0.048c-0.813-1.178-1.483-2.439-1.665-3.8
												c-0.18-1.348,0.028-2.684,0.543-3.824c0.551-1.129,1.388-2.006,2.284-2.65c0.488-0.258,0.928-0.574,1.431-0.701
												c0.243-0.079,0.478-0.172,0.715-0.233c0.242-0.035,0.479-0.069,0.712-0.103c1.886-0.225,3.332,0.429,4.238,0.873
												c0.437,0.278,0.759,0.52,0.977,0.676C168.855,138.666,168.961,138.754,168.949,138.767z"/>
										</g>
									</g>
								</g>
							</g>
						</g>
					</g>
				</g>
			</g>
		</g>
		<g>
			<g>
				<g>
					<path style="fill:#FF725E;" d="M111.973,87.455l-1.352,22.601c-0.111,1.848-1.581,3.324-3.429,3.44l0,0
						c-1.949,0.123-3.652-1.304-3.874-3.244l-2.587-22.701c-0.196-1.719,1.159-3.221,2.889-3.203l5.512,0.058
						C110.776,84.424,112.071,85.814,111.973,87.455z"/>
				</g>
			</g>
			<g>
				<g>
					<path style="fill:#FF725E;" d="M101.246,126.228c0.97,2.887,4.097,4.442,6.984,3.472c2.887-0.969,4.442-4.096,3.472-6.984
						c-0.97-2.887-4.097-4.442-6.984-3.472C101.831,120.214,100.276,123.34,101.246,126.228z"/>
				</g>
			</g>
		</g>
	</g>
</g>
<g id="Character">
	<g>
		<g>
			<g>
				<g>
					<g>
						<g>
							<g>
								<path style="fill:#263238;" d="M260.898,50.57c-1.929-4.216-6.771-6.893-11.367-6.282
									c-5.137-4.501-13.496-4.757-18.899-0.58c-3.916-2.59-9.203-2.955-13.437-0.925c-4.234,2.03-7.262,6.38-7.695,11.055
									c-4.653-0.98-9.811,1.31-12.206,5.417c-2.396,4.108-1.848,9.725,1.297,13.292c-5.187,1.405-8.831,7.071-7.955,12.373
									c0.875,5.302,6.147,9.497,11.51,9.159l56.072-30.801C261.685,60.2,262.826,54.786,260.898,50.57z"/>
							</g>
							<g>
								<g>
									<g>
										<g>
											<g>
												<g>
													<g>
														<path style="fill:#FFBF9D;" d="M200.477,95.536c3.146-24.047,24.232-41.642,48.453-40.438l2.407,0.119
															c25.876,2.806,37.949,26.349,34.429,52.137l-6.877,97.736l14.801,7.011l-44.795,32.679l-51.403-36.324l20.13-6.619
															l0.356-17.059c0,0-24.755-5.119-23.824-30.077C194.605,142.648,197.551,117.901,200.477,95.536z"/>
													</g>
												</g>
											</g>
										</g>
									</g>
									<g>
										<g>
											<g>
												<g>
													<g>
														<g>
															<g>
																<path style="fill:#FF9A6C;" d="M217.979,184.779c0,0,15.677,1.704,32.954-7.988c0,0-8.32,18.362-33.098,14.879
																	L217.979,184.779z"/>
															</g>
														</g>
													</g>
												</g>
											</g>
										</g>
									</g>
									<g>
										<g>
											<g>
												<g>
													<g>
														<g>
															<g>
																<g>
																	<g>
																		<g>
																			<path style="fill:#263238;" d="M210.736,120.282c-0.161,1.877,1.298,3.562,3.256,3.764
																				c1.954,0.202,3.671-1.151,3.831-3.029c0.16-1.878-1.297-3.564-3.252-3.767
																				C212.613,117.048,210.896,118.405,210.736,120.282z"/>
																		</g>
																	</g>
																</g>
															</g>
														</g>
													</g>
												</g>
											</g>
										</g>
									</g>
									<g>
										<g>
											<g>
												<g>
													<g>
														<g>
															<g>
																<g>
																	<g>
																		<g>
																			<g>
																				<path style="fill:#263238;" d="M205.233,108.006c0.418,0.487,3.215-1.377,7.049-1.176
																					c3.831,0.145,6.547,2.257,6.985,1.809c0.215-0.198-0.193-1.059-1.373-2.012
																					c-1.162-0.948-3.175-1.914-5.564-2.022c-2.388-0.105-4.44,0.674-5.639,1.516
																					C205.466,106.967,205.025,107.787,205.233,108.006z"/>
																			</g>
																		</g>
																	</g>
																</g>
															</g>
														</g>
													</g>
												</g>
											</g>
										</g>
									</g>
									<g>
										<g>
											<g>
												<g>
													<g>
														<g>
															<g>
																<g>
																	<g>
																		<g>
																			<path style="fill:#263238;" d="M244.417,121.966c-0.16,1.877,1.298,3.561,3.256,3.763
																				c1.954,0.203,3.671-1.15,3.832-3.029c0.16-1.877-1.299-3.563-3.253-3.766
																				C246.294,118.731,244.577,120.089,244.417,121.966z"/>
																		</g>
																	</g>
																</g>
															</g>
														</g>
													</g>
												</g>
											</g>
										</g>
									</g>
									<g>
										<g>
											<g>
												<g>
													<g>
														<g>
															<g>
																<g>
																	<g>
																		<g>
																			<g>
																				<path style="fill:#263238;" d="M242.875,110.593c0.419,0.486,3.22-1.376,7.05-1.175
																					c3.83,0.146,6.546,2.257,6.985,1.808c0.214-0.197-0.189-1.058-1.375-2.011
																					c-1.161-0.948-3.174-1.913-5.563-2.023c-2.388-0.106-4.44,0.674-5.64,1.516
																					C243.113,109.554,242.669,110.374,242.875,110.593z"/>
																			</g>
																		</g>
																	</g>
																</g>
															</g>
														</g>
													</g>
												</g>
											</g>
										</g>
									</g>
									<g>
										<g>
											<g>
												<g>
													<g>
														<g>
															<g>
																<g>
																	<g>
																		<g>
																			<path style="fill:#263238;" d="M227.552,138.329c0.029-0.218-2.333-0.748-6.169-1.433
																				c-0.974-0.149-1.891-0.39-2.022-1.066c-0.195-0.718,0.266-1.753,0.797-2.869c1.038-2.322,2.124-4.757,3.265-7.31
																				c4.548-10.412,7.89-18.993,7.47-19.172c-0.421-0.179-4.448,8.115-8.994,18.527
																				c-1.098,2.568-2.148,5.017-3.146,7.36c-0.425,1.094-1.126,2.324-0.699,3.816
																				c0.227,0.745,0.919,1.312,1.538,1.511c0.618,0.223,1.168,0.261,1.651,0.313
																				C225.117,138.408,227.526,138.545,227.552,138.329z"/>
																		</g>
																	</g>
																</g>
															</g>
														</g>
													</g>
												</g>
											</g>
										</g>
									</g>
									<g>
										<g>
											<g>
												<g>
													<g>
														<g>
															<path style="fill:#263238;" d="M259.139,103.637c-0.191-1.08-3.645-1.061-7.547-2.151
																c-3.926-1.002-6.952-2.754-7.609-1.9c-0.297,0.412,0.127,1.461,1.285,2.642c1.147,1.177,3.066,2.412,5.413,3.041
																c2.347,0.625,4.593,0.504,6.133,0.044C258.366,104.857,259.214,104.147,259.139,103.637z"/>
														</g>
													</g>
												</g>
											</g>
										</g>
									</g>
									<g>
										<g>
											<g>
												<g>
													<g>
														<g>
															<path style="fill:#263238;" d="M220.039,100.092c-0.751-0.921-3.97-0.22-7.774-0.42
																c-3.809-0.089-6.983-1.032-7.781-0.17c-0.353,0.421,0.098,1.325,1.452,2.238c1.333,0.909,3.609,1.728,6.226,1.828
																c2.616,0.097,4.93-0.547,6.309-1.353C219.87,101.407,220.369,100.539,220.039,100.092z"/>
														</g>
													</g>
												</g>
											</g>
										</g>
									</g>
									<g>
										<g>
											<g>
												<g>
													<g>
														<path style="fill:#263238;" d="M203.444,84.215c0,0,7.355-15.294,15.069-18.565c9.338-3.96,12.766,6.244,21.577,4.247
															c8.811-1.997,17.726-5.799,26.273,1.36c9.355,7.835,4.545,12.768,4.595,23.865
															c0.205,44.992,7.769,58.088,11.15,37.069c0.37-2.303,6.888-3.825,8.326-13.561
															c1.865-12.625,3.118-28.004,0.734-37.147c-2.01-7.707-6.075-13.164-13.546-19.33
															c-11.793-9.732-28.606-10.764-40.088-10.182C226.054,52.553,203.375,64.605,203.444,84.215z"/>
													</g>
												</g>
											</g>
										</g>
									</g>
									<g>
										<g>
											<g>
												<g>
													<g>
														<path style="fill:#FFBF9D;" d="M280.552,131.433c0.349-3.842,3.817-6.717,7.635-6.162
															c4.63,0.673,9.675,3.572,8.891,13.17c-1.392,17.026-18.199,12.117-18.188,11.626
															C278.897,149.734,279.907,138.553,280.552,131.433z"/>
													</g>
												</g>
											</g>
										</g>
									</g>
									<g>
										<g>
											<g>
												<g>
													<g>
														<path style="fill:#FF9A6C;" d="M283.118,143.964c0.079-0.048,0.28,0.232,0.763,0.503
															c0.47,0.264,1.298,0.487,2.213,0.227c1.853-0.513,3.601-3.245,3.934-6.307c0.17-1.545-0.034-3.048-0.484-4.314
															c-0.418-1.288-1.152-2.224-2.044-2.459c-0.884-0.283-1.57,0.207-1.817,0.669c-0.267,0.458-0.187,0.806-0.28,0.828
															c-0.051,0.039-0.342-0.316-0.148-1.008c0.098-0.332,0.33-0.717,0.757-1.012c0.436-0.299,1.051-0.42,1.676-0.299
															c1.305,0.198,2.388,1.502,2.882,2.893c0.566,1.402,0.831,3.094,0.641,4.829c-0.39,3.423-2.408,6.49-4.928,6.999
															c-1.223,0.215-2.193-0.228-2.676-0.672C283.115,144.378,283.056,143.99,283.118,143.964z"/>
													</g>
												</g>
											</g>
										</g>
									</g>
								</g>
								<g>
									<g>
										<g>
											<g>
												<path style="fill:#263238;" d="M281.861,98.377c-2.29,1.401-4.707,2.845-7.389,2.976
													c-2.682,0.132-5.657-1.553-5.976-4.219c-0.143-1.197,0.215-2.56-0.519-3.516c-0.877-1.141-2.612-0.883-4.049-0.803
													c-4.984,0.279-10.505-5.484-11.528-10.37c-1.358,1.83-4.157,2.265-6.009,0.936c-1.853-1.329-2.515-2.067-3.928-3.857
													c-1.412-1.789-3.438-3.427-5.708-3.219c-1.27,0.116-2.487,0.809-3.75,0.633c-2.23-0.31-3.193-2.987-3.421-5.226
													c-0.228-2.24-0.363-4.846-2.199-6.148c-1.702-1.207-4.012-0.673-6.089-0.472c-2.076,0.202-4.715-0.415-5.142-2.457
													c-0.224-1.071,0.285-2.161,0.917-3.055c2.863-4.048,8.746-5.618,13.245-3.533c1.948-5.552,7.436-9.676,13.311-10.002
													c5.875-0.326,11.786,3.164,14.337,8.467c3.767-3.091,9.072-4.203,13.763-2.885c4.691,1.318,8.641,5.03,10.246,9.631
													c4.203-0.885,8.851,0.954,11.311,4.475c2.459,3.521,2.586,8.518,0.309,12.16c2.978,1.903,5.451,5.08,5.339,8.613
													c-0.112,3.533-3.725,6.879-7.085,5.781c1.24,2.817-0.066,6.491-2.804,7.894c-2.739,1.403-6.484,0.316-8.046-2.336"/>
											</g>
										</g>
									</g>
								</g>
								<g>
									<g>
										<g>
											<g>
												<g>
													<path style="fill:#455A64;" d="M228.799,61.001c-0.014,0-0.018,0.106-0.012,0.313c0.013,0.206,0.009,0.517,0.063,0.916
														c0.118,0.795,0.377,1.977,1.075,3.347c0.704,1.35,1.823,2.926,3.581,4.22c1.721,1.306,4.118,2.353,6.886,2.339
														l-0.27-0.392c-0.602,1.432-0.544,3.19,0.108,4.726c0.612,1.559,1.629,2.965,2.71,4.339
														c0.556,0.662,1.029,1.43,1.811,2.052c0.761,0.597,1.69,0.967,2.653,1.137c1.911,0.341,4.111-0.146,5.587-1.694
														l-0.629-0.214c0.265,3.411,2.025,6.899,4.985,9.119c1.563,1.252,3.533,2.068,5.509,2.113
														c1.975,0.079,3.838-0.409,5.578-0.937l-0.446-0.223c0.811,2.166,2.13,4.044,3.775,5.464
														c1.613,1.416,3.811,2.309,5.861,1.913c4.067-0.652,6.904-3.867,7.598-6.992l-0.395,0.161
														c1.943,1.188,4.081,1.399,5.817,1.152c1.759-0.232,3.165-0.922,4.177-1.619c1.017-0.713,1.634-1.466,2.009-1.989
														c0.348-0.547,0.495-0.851,0.476-0.861c-0.082-0.075-0.63,1.268-2.646,2.611c-1.004,0.639-2.377,1.265-4.068,1.447
														c-1.669,0.2-3.692-0.048-5.485-1.182l-0.31-0.197l-0.085,0.358c-0.687,2.913-3.413,5.909-7.183,6.471
														c-1.856,0.339-3.788-0.458-5.316-1.798c-1.536-1.338-2.792-3.148-3.544-5.183l-0.119-0.322l-0.327,0.099
														c-1.713,0.515-3.511,0.97-5.336,0.891c-1.828-0.052-3.596-0.778-5.086-1.965c-2.796-2.1-4.449-5.364-4.716-8.594
														l-0.067-0.812l-0.562,0.598c-1.246,1.326-3.216,1.798-4.934,1.494c-0.863-0.147-1.688-0.472-2.352-0.988
														c-0.649-0.494-1.144-1.256-1.708-1.924c-1.081-1.351-2.07-2.704-2.654-4.155c-0.622-1.436-0.677-2.981-0.159-4.279
														l0.16-0.4l-0.43,0.007c-2.609,0.046-4.921-0.909-6.604-2.137c-1.72-1.213-2.841-2.711-3.568-4.002
														C228.783,62.771,228.923,60.967,228.799,61.001z"/>
												</g>
											</g>
										</g>
									</g>
								</g>
							</g>
						</g>
					</g>
				</g>
				<g>
					<g>
						<path style="fill:#FF9A6C;" d="M236.45,147.488c-0.505-0.842-1.129-1.631-1.938-2.188c-1.503-1.035-3.491-1.151-5.266-0.726
							c-1.496,0.358-3.156,1.363-4.297,2.402c-2.139,1.947-1.645,4.119-1.225,8.999c4.833-0.625,9.65,0.674,14.256-0.919
							C238.348,152.458,237.799,149.739,236.45,147.488z"/>
					</g>
					<g>
						<path style="fill:#FF9A6C;" d="M224.949,146.421c0.023-0.013,0.046-0.025,0.069-0.038c0.001-0.001,0.002-0.002,0.003-0.003
							L224.949,146.421z"/>
					</g>
				</g>
				<g>
					<g>
						<path style="fill:#263238;" d="M223.724,155.975c-0.02-0.136,2.085-0.521,5.506-0.604c1.706-0.057,3.727-0.079,5.948-0.27
							c0.278-0.026,0.558-0.053,0.842-0.08c0.291-0.034,0.579-0.046,0.784-0.109c0.464-0.138,0.754-0.382,0.854-0.841
							c0.112-0.464,0.057-1.051-0.041-1.652c-0.099-0.621-0.203-1.245-0.337-1.864c-0.266-1.234-0.643-2.406-1.276-3.334
							c-0.622-0.937-1.528-1.548-2.531-1.838c-1.002-0.301-2.033-0.326-3.007-0.269c-0.971,0.057-1.867,0.196-2.648,0.436
							c-1.575,0.462-2.636,1.32-3.209,2.035c-0.584,0.714-0.802,1.205-0.885,1.168c-0.049-0.016,0.037-0.564,0.558-1.407
							c0.505-0.84,1.618-1.901,3.305-2.495c0.834-0.308,1.789-0.499,2.815-0.598c1.016-0.097,2.165-0.114,3.337,0.208
							c1.171,0.298,2.358,1.066,3.105,2.179c0.765,1.1,1.173,2.398,1.455,3.695c0.141,0.652,0.247,1.296,0.343,1.925
							c0.093,0.643,0.184,1.326,0.006,2.061c-0.09,0.364-0.282,0.747-0.592,1.028c-0.297,0.274-0.651,0.435-0.997,0.525
							c-0.366,0.093-0.667,0.092-0.948,0.121c-0.29,0.021-0.578,0.042-0.862,0.063c-2.273,0.142-4.315,0.086-6.015,0.05
							C225.836,156.002,223.743,156.124,223.724,155.975z"/>
					</g>
				</g>
				<g>
					<g>
						<path style="fill:#FF9A6C;" d="M253.589,129.3c-0.168,0.26-2.316-1.05-5.292-1.386c-2.97-0.388-5.37,0.367-5.47,0.075
							c-0.047-0.124,0.501-0.489,1.51-0.796c1.003-0.308,2.478-0.506,4.086-0.312c1.607,0.198,2.991,0.744,3.891,1.284
							C253.22,128.704,253.664,129.191,253.589,129.3z"/>
					</g>
				</g>
				<g>
					<g>
						<path style="fill:#FF9A6C;" d="M215.327,126.673c-0.152,0.267-2.214-0.78-4.967-0.97c-2.75-0.236-4.949,0.482-5.058,0.194
							c-0.05-0.124,0.447-0.48,1.37-0.796c0.918-0.317,2.274-0.55,3.768-0.436c1.493,0.118,2.797,0.556,3.655,1.011
							C214.959,126.129,215.395,126.557,215.327,126.673z"/>
					</g>
				</g>
				<g>
					<g>
						<path style="fill:#FF9A6C;" d="M227.267,104.395c-0.065-0.141,0.361-0.437,0.879-1.015c0.518-0.569,1.115-1.475,1.322-2.588
							c0.203-1.115-0.033-2.174-0.314-2.89c-0.278-0.725-0.571-1.153-0.46-1.262c0.088-0.096,0.601,0.166,1.111,0.918
							c0.506,0.732,0.944,2.011,0.687,3.422c-0.262,1.41-1.127,2.449-1.86,2.952C227.888,104.454,227.315,104.516,227.267,104.395z"
							/>
					</g>
				</g>
				<g>
					<g>
						<path style="fill:#FF9A6C;" d="M235.137,105.172c-0.109,0.077-0.523-0.256-0.96-0.98c-0.436-0.717-0.846-1.846-0.917-3.143
							c-0.067-1.297,0.222-2.463,0.58-3.222c0.358-0.766,0.735-1.14,0.851-1.075c0.268,0.142-0.539,1.932-0.391,4.243
							C234.397,103.307,235.389,105.002,235.137,105.172z"/>
					</g>
				</g>
			</g>
			<g>
				<g>
					<g>
						<path style="fill:#455A64;" d="M276.137,64.136c0.202,1.18,0.248,2.384,0.144,3.576c-0.08,0.918-0.192,2.021-0.845,2.732
							c-0.638,0.694-1.667,0.913-2.573,0.935c-1.162,0.029-2.295-0.262-3.413-0.545c-0.78-0.198-1.113,1.008-0.332,1.205
							c2.252,0.57,5.383,1.246,7.202-0.711c0.837-0.901,1.052-2.125,1.181-3.304c0.154-1.41,0.081-2.824-0.158-4.22
							C277.207,63.012,276.002,63.348,276.137,64.136L276.137,64.136z"/>
					</g>
				</g>
				<g>
					<g>
						<path style="fill:#455A64;" d="M280.185,63.803c-0.239,1.396-0.311,2.81-0.158,4.22c0.128,1.179,0.344,2.403,1.181,3.304
							c1.819,1.957,4.95,1.281,7.202,0.711c0.779-0.197,0.449-1.403-0.332-1.205c-1.118,0.283-2.25,0.574-3.413,0.545
							c-0.907-0.022-1.933-0.242-2.573-0.935c-0.654-0.709-0.765-1.815-0.845-2.732c-0.104-1.193-0.058-2.396,0.144-3.576
							C281.525,63.349,280.321,63.011,280.185,63.803L280.185,63.803z"/>
					</g>
				</g>
				<g>
					<g>
						<path style="fill:#455A64;" d="M281.642,83.247c-0.202-1.18-0.248-2.384-0.144-3.576c0.08-0.918,0.192-2.021,0.845-2.732
							c0.638-0.694,1.667-0.913,2.572-0.935c1.162-0.029,2.295,0.262,3.413,0.545c0.78,0.197,1.113-1.008,0.332-1.205
							c-2.252-0.57-5.383-1.246-7.202,0.711c-0.837,0.901-1.052,2.125-1.181,3.304c-0.154,1.41-0.081,2.824,0.158,4.22
							C280.573,84.371,281.777,84.035,281.642,83.247L281.642,83.247z"/>
					</g>
				</g>
				<g>
					<g>
						<path style="fill:#455A64;" d="M277.595,83.58c0.239-1.396,0.311-2.81,0.158-4.22c-0.128-1.179-0.343-2.404-1.181-3.304
							c-1.819-1.957-4.95-1.281-7.202-0.711c-0.779,0.197-0.449,1.403,0.332,1.205c1.118-0.283,2.25-0.574,3.413-0.545
							c0.907,0.022,1.933,0.242,2.573,0.935c0.654,0.709,0.765,1.816,0.845,2.732c0.104,1.193,0.058,2.396-0.144,3.576
							C276.255,84.034,277.459,84.372,277.595,83.58L277.595,83.58z"/>
					</g>
				</g>
			</g>
			<g>
				<g>
					<path style="fill:#FF9A6C;" d="M233.613,165.431c-0.1,0.124-0.706-0.248-1.719-0.69c-1.01-0.446-2.464-0.909-4.127-1.043
						c-1.664-0.125-3.172,0.108-4.239,0.393c-1.069,0.279-1.725,0.553-1.805,0.415c-0.067-0.107,0.473-0.622,1.562-1.111
						c1.08-0.49,2.734-0.875,4.563-0.736c1.828,0.145,3.403,0.781,4.394,1.432C233.242,164.743,233.696,165.335,233.613,165.431z"/>
				</g>
			</g>
		</g>
		<g>
			<g>
				<path style="fill:#455A64;" d="M332.553,218.213c0,0,15.341,5.052,26.583,28.182c8.698,17.895,26.874,56.219,26.874,56.219
					l-53.844,19.718l-5.464-22.498L332.553,218.213z"/>
			</g>
			<g>
				<path style="fill:#455A64;" d="M332.553,218.213l-53.663-13.122c-27.442,14.632-42.013,14.944-61.055-4.332l-58.457,13.586
					l1.165,89.498l1.029,74.909l-12.635,97.87h187.403l-5.485-156.373L332.553,218.213z"/>
			</g>
			<g>
				<g>
					<path style="fill:#263238;" d="M336.341,476.621c-0.018,0.001-0.047-0.197-0.086-0.583c-0.035-0.407-0.084-0.977-0.148-1.718
						c-0.108-1.532-0.265-3.757-0.466-6.613c-0.361-5.765-0.88-14.074-1.521-24.333c-0.605-10.282-1.324-22.516-2.123-36.098
						c-0.195-3.397-0.395-6.878-0.599-10.434c-0.156-3.577-0.16-7.201-0.247-10.906c-0.128-7.403-0.26-15.068-0.395-22.919
						c-0.515-31.414-0.861-59.852-0.982-80.437c-0.05-10.293-0.066-18.623-0.001-24.379c0.018-2.878,0.069-5.113,0.116-6.629
						c0.028-0.743,0.049-1.315,0.064-1.723c0.02-0.388,0.039-0.587,0.057-0.586c0.045,2.865,0.803,51.121,1.787,113.738
						c0.128,7.85,0.253,15.515,0.374,22.918c0.08,3.697,0.077,7.349,0.221,10.887c0.192,3.556,0.38,7.037,0.564,10.433
						c0.715,13.583,1.358,25.818,1.9,36.101c0.502,10.265,0.908,18.578,1.19,24.347c0.117,2.861,0.208,5.089,0.271,6.623
						c0.019,0.744,0.034,1.316,0.044,1.724C336.365,476.421,336.359,476.621,336.341,476.621z"/>
				</g>
			</g>
			<g>
				<path style="fill:#455A64;" d="M159.72,214.258c0,0-11.588,2.824-20.652,16.861c-9.064,14.037-31.379,53.721-31.379,53.721
					l53.749,29.392L159.72,214.258z"/>
			</g>
			<g>
				<g>
					<path style="fill:#263238;" d="M148.938,476.621c-0.015-0.002-0.009-0.146,0.017-0.426c0.034-0.298,0.08-0.708,0.14-1.24
						c0.145-1.109,0.355-2.716,0.626-4.789c0.587-4.189,1.438-10.256,2.502-17.849c2.216-15.222,5.322-36.56,8.897-61.113
						l-0.005,0.083c-0.171-8.812-0.354-18.201-0.541-27.871c-0.535-31.518-1.019-60.048-1.369-80.72
						c-0.125-10.315-0.226-18.668-0.296-24.464c-0.012-2.873-0.021-5.111-0.028-6.652c0.008-0.747,0.015-1.321,0.019-1.73
						c0.01-0.39,0.024-0.59,0.042-0.59c0.018,0,0.039,0.199,0.064,0.588c0.02,0.409,0.048,0.983,0.084,1.729
						c0.052,1.54,0.127,3.777,0.223,6.648c0.149,5.794,0.363,14.145,0.627,24.457c0.429,20.671,1.02,49.198,1.674,80.715
						c0.177,9.67,0.348,19.059,0.51,27.871l0.001,0.043l-0.006,0.041c-3.719,24.531-6.952,45.851-9.258,61.059
						c-1.19,7.575-2.14,13.627-2.796,17.806c-0.343,2.062-0.609,3.66-0.793,4.764c-0.097,0.527-0.173,0.933-0.227,1.228
						C148.989,476.484,148.953,476.624,148.938,476.621z"/>
				</g>
			</g>
			<g>
				<g>
					<path style="fill:#263238;" d="M255.91,282.887c0.04,0.06-0.883,0.753-2.585,1.955c-1.701,1.204-4.192,2.905-7.291,4.973
						c-6.198,4.137-14.857,9.71-24.571,15.621c-9.719,5.91-18.65,11.037-25.174,14.638c-3.262,1.802-5.917,3.231-7.768,4.188
						c-1.85,0.959-2.89,1.46-2.925,1.397c-0.035-0.063,0.938-0.683,2.727-1.751c1.839-1.082,4.425-2.604,7.601-4.473
						c6.426-3.762,15.288-8.985,24.997-14.888c9.704-5.905,18.415-11.373,24.711-15.349c3.121-1.961,5.661-3.557,7.468-4.693
						C254.872,283.406,255.87,282.828,255.91,282.887z"/>
				</g>
			</g>
		</g>
		<g>
			<g>
				<g>
					<g>
						<path style="fill:#FF725E;" d="M246.85,449.125c-36.048,0-65.375-29.327-65.375-65.374c0-36.048,29.327-65.375,65.375-65.375
							c36.047,0,65.375,29.327,65.375,65.375C312.224,419.798,282.897,449.125,246.85,449.125z M246.85,319.376
							c-35.496,0-64.375,28.879-64.375,64.375s28.878,64.374,64.375,64.374c35.497,0,64.375-28.878,64.375-64.374
							S282.346,319.376,246.85,319.376z"/>
					</g>
				</g>
				<g>
					<circle style="fill:#FF725E;" cx="246.849" cy="383.751" r="58.452"/>
				</g>
				<g style="opacity:0.4;">
					<circle style="fill:#FFFFFF;" cx="246.849" cy="383.751" r="58.452"/>
				</g>
				<g>
					
						<ellipse transform="matrix(0.7071 -0.7071 0.7071 0.7071 -199.0523 286.947)" style="fill:#FF725E;" cx="246.85" cy="383.751" rx="50.063" ry="50.063"/>
				</g>
				<g style="opacity:0.3;">
					
						<ellipse transform="matrix(0.7071 -0.7071 0.7071 0.7071 -199.0523 286.947)" style="fill:#FFFFFF;" cx="246.85" cy="383.751" rx="50.063" ry="50.063"/>
				</g>
				<g>
					
						<ellipse transform="matrix(0.7071 -0.7071 0.7071 0.7071 -199.0523 286.947)" style="fill:#FF725E;" cx="246.85" cy="383.751" rx="40.537" ry="40.537"/>
				</g>
				<g>
					
						<ellipse transform="matrix(0.7071 -0.7071 0.7071 0.7071 -199.0523 286.947)" style="fill:#FF725E;" cx="246.85" cy="383.751" rx="40.537" ry="40.537"/>
				</g>
			</g>
			<g>
				<path style="fill:#FF725E;" d="M259.625,306.352c0,0,3.671-25.431,3.221-26.537c-0.451-1.106,11.506,24.542,11.513,25.614
					c0.007,1.072,23.088-34.867,23.088-34.867l-2.89,40.593l20.649-5.177l-12.485,13.623l20.268,2.873
					c0,0-19.674,10.643-20.889,11.353l10.352-8.262l-16.369-3.031l8.534-10.4l-13.692,4.808l0.382-27.766L274.3,310.278
					l-9.305-15.105L259.625,306.352z"/>
			</g>
			<g>
				<path style="fill:#FF725E;" d="M158.643,425.028l-21.429,11.937l27.76,2.908l-8.599,23.063l23.163-17.036
					c0,0,5.098,16.262,5.316,15.92c0.219-0.342,11.932-12.926,11.932-12.926l-10.134,7.055l-6.505-13.209l-14.669,7.076
					l4.302-12.418l-20.242-2.541L158.643,425.028z"/>
			</g>
			<g>
				<polygon style="fill:#FF725E;" points="289.27,448.828 305.435,456.744 304.954,443.026 343.391,447.757 320.407,415.684 
					333.45,412.666 313.257,413.575 329.503,440.17 300.26,437.61 300.501,449.524 				"/>
			</g>
		</g>
		<g>
			<g>
				<path style="fill:#FFBF9D;" d="M280.067,364.752c0,0-9.989,1.295-15.353-3.7c-5.364-4.995-12.394-12.558-17.573-13.771
					c-5.18-1.213-19.608-1.398-20.533-1.213c-0.716,0.143-7.226,4.167-10.13,5.977c-0.811,0.505-0.995,1.597-0.407,2.349
					c1.249,1.601,3.678,3.878,7.207,3.513c5.365-0.555,7.596-2.647,7.596-2.647l6.212,1.312c0,0-1.968,3.369-5.483,4.664
					c-3.515,1.295-16.278,4.002-19.978,3.666c-3.7-0.336-22.383-0.336-24.788,3.179c-2.405,3.515-1.295,5.549,2.96,6.289
					c4.255,0.74,25.713,0.74,26.822,1.11c1.11,0.37-29.597,1.665-36.072,3.885c-6.474,2.22-2.59,5.734-0.925,7.399
					c1.665,1.665,37.551-0.925,37.551-0.925s-34.962,7.399-36.071,9.619c-1.11,2.22-0.37,5.919,4.07,5.919
					c4.44,0,36.257-4.995,36.257-4.995s-29.597,9.064-30.522,10.914c-0.925,1.85,0.185,4.44,1.665,4.995
					c1.48,0.555,39.031-5.364,39.031-5.364s28.487-2.96,33.667-6.844c5.18-3.885,16.278-2.775,16.278-2.775L280.067,364.752z"/>
			</g>
			<g>
				<path style="fill:#FFBF9D;" d="M280.067,364.752c0,0,65.86-3.577,71.877-8.024l-14.638-36.278l44.173-16.176
					c0,0,13.629,40.42,14.676,56.378c1.046,15.958-0.09,27.408-6.802,32.962c-7.587,6.279-15.549,5.83-26.821,7.997
					c-12.876,2.475-26.064,2.868-39.068,1.192l-43.398-5.592v-31.327"/>
			</g>
			<g>
				<g>
					<path style="fill:#FF9A6C;" d="M379.473,363.476c-0.119,0.138-1.498-1.039-3.994-2.48c-0.626-0.357-1.312-0.743-2.085-1.089
						c-0.751-0.39-1.598-0.706-2.476-1.065c-1.783-0.651-3.791-1.23-5.949-1.603c-2.163-0.346-4.252-0.448-6.149-0.41
						c-0.947,0.056-1.851,0.081-2.688,0.206c-0.843,0.077-1.618,0.221-2.326,0.356c-2.828,0.555-4.514,1.222-4.581,1.053
						c-0.047-0.094,1.554-1.013,4.419-1.772c0.716-0.185,1.505-0.375,2.369-0.493c0.857-0.166,1.787-0.226,2.764-0.31
						c1.958-0.094,4.124-0.017,6.362,0.341c2.233,0.385,4.307,1.014,6.129,1.737c0.897,0.396,1.758,0.753,2.515,1.188
						c0.779,0.391,1.464,0.826,2.082,1.233C378.33,362.015,379.547,363.402,379.473,363.476z"/>
				</g>
			</g>
		</g>
		<g>
			<g>
				<path style="fill:#FFBF9D;" d="M242.536,384.485c1.954-2.831-0.708-6.574-4.048-5.749c-2.507,0.619-6.237,1.363-10.406,1.6
					c-6.811,0.387-15.028-0.919-16.823-0.421c-3.785,1.051-17.454,8.201-23.763,9.884c-6.309,1.682-12.052,0.365-12.052,0.365
					l-15.724,27.874c0,0,66.47,35.689,69.835,36.74c3.365,1.051,14.931,4.626,15.982,1.893c1.051-2.734,0-5.257,0-5.257
					l-22.711-12.197c0,0,31.123,8.622,34.488,8.412c3.365-0.21,6.729-3.365,3.154-6.519c-3.575-3.154-30.702-12.197-30.702-12.197
					s34.431,5.376,38.273,4.837c4.284-0.601,4.626-6.309,0-7.991c-4.626-1.682-37.642-8.412-37.011-10.094
					c0.631-1.682,32.169-1.805,34.422-3.972c2.214-2.13,2.799-6.122-4.561-7.804c-7.36-1.682-34.488,0.421-38.693-2.313
					c-4.206-2.734-3.365-9.253-3.365-9.253s11.768,1.125,16.192-0.841C238.807,389.799,240.608,387.278,242.536,384.485z"/>
			</g>
			<g>
				<g>
					<path style="fill:#FFBF9D;" d="M128.202,351.185l24.397-41.786l-42.355-23.162c0,0-11.675,25.995-19.18,41.719
						c-7.505,15.724-14.294,26.802-6.075,40.739c8.219,13.937,82.908,53.247,82.908,53.247l15.724-27.874L128.202,351.185z"/>
				</g>
				<g>
					<path style="fill:#FF9A6C;" d="M242.34,458.191c-4.237,0-10.743-2.039-12.975-2.948c-3.251-1.324-67.162-35.315-69.881-36.762
						l0.47-0.883c0.666,0.354,66.585,35.413,69.788,36.719c4.74,1.928,14.26,4.099,15.356,2.114c0.857-1.555,0.91-2.938,0.157-4.109
						c-0.315-0.49-0.8-0.92-1.403-1.244l-25.206-13.535l4.311,1.194c10.584,2.932,31.131,8.397,34.201,8.397
						c0.045,0,0.085-0.002,0.122-0.004c1.882-0.117,3.645-1.208,4.1-2.538c0.346-1.009-0.084-2.083-1.245-3.106
						c-3.459-3.052-30.259-12.008-30.53-12.098l0.221-0.971c0,0,36.589,4.629,38.272,4.837c1.664,0.206,2.559-0.909,2.836-2.022
						c0.418-1.689-0.365-3.975-3.075-5.005c-1.702-0.647-7.638-2.043-13.922-3.521c-15.948-3.75-22.715-5.505-23.337-6.669
						c-0.094-0.176-0.109-0.37-0.043-0.548c0.4-1.066,4.394-1.454,17.922-2.233c6.811-0.392,13.853-0.797,15.941-1.407
						c1.161-0.34,1.915-1.434,1.877-2.724c-0.051-1.697-1.528-3.836-5.522-4.749c-3.178-0.727-10.089-0.735-17.408-0.744
						c-9.752-0.012-18.964-0.023-21.446-1.638c-4.419-2.871-3.624-9.457-3.588-9.736l0.062-0.479l0.481,0.046
						c0.118,0.012,11.689,1.092,15.942-0.8c3.744-1.664,5.474-4.171,7.306-6.824c0.922-1.335,0.597-2.756-0.014-3.641
						c-0.628-0.91-1.877-1.741-3.503-1.338c-2.441,0.603-6.244,1.372-10.497,1.613c-3.713,0.209-7.811-0.074-11.102-0.305
						c-2.616-0.182-4.875-0.338-5.616-0.134c-1.585,0.441-4.972,1.988-8.893,3.78c-5.265,2.406-11.232,5.134-14.875,6.105
						c-6.356,1.693-12.053,0.424-12.293,0.369l0.223-0.975c0.057,0.013,5.707,1.268,11.812-0.361
						c3.561-0.949,9.488-3.658,14.717-6.048c3.959-1.81,7.378-3.372,9.04-3.834c0.909-0.251,3.025-0.104,5.953,0.1
						c3.264,0.228,7.324,0.512,10.976,0.304c4.177-0.237,7.914-0.993,10.314-1.586c1.746-0.432,3.537,0.252,4.566,1.74
						c1.021,1.479,1.027,3.31,0.014,4.777c-1.83,2.65-3.722,5.392-7.723,7.17c-4.018,1.783-13.602,1.12-15.938,0.926
						c-0.087,1.508-0.073,6.178,3.18,8.292c2.235,1.453,12.152,1.465,20.903,1.476c7.375,0.01,14.343,0.018,17.629,0.77
						c4.55,1.04,6.237,3.623,6.299,5.694c0.053,1.752-0.99,3.243-2.595,3.712c-2.198,0.643-8.982,1.033-16.165,1.447
						c-6.338,0.364-14.841,0.855-16.763,1.51c2.21,1.223,14.253,4.054,22.393,5.968c6.591,1.55,12.283,2.888,14.048,3.559
						c3.133,1.192,4.228,4.012,3.689,6.182c-0.469,1.891-2.057,3.003-3.929,2.773c-1.298-0.16-23.362-2.951-33.387-4.219
						c7.959,2.75,23.488,8.308,26.209,10.708c1.98,1.746,1.808,3.369,1.529,4.181c-0.589,1.718-2.685,3.068-4.983,3.212
						c-2.641,0.19-21.706-4.899-30.392-7.261l17.372,9.329c0.753,0.404,1.365,0.952,1.771,1.584
						c0.665,1.034,1.183,2.765-0.122,5.133C245.463,457.84,244.097,458.191,242.34,458.191z"/>
				</g>
			</g>
			<g>
				<g>
					<path style="fill:#FF9A6C;" d="M128.725,351.04c-0.023,0.325-5.412-0.186-11.888,1.011c-6.489,1.139-11.359,3.498-11.494,3.202
						c-0.144-0.207,4.64-3.051,11.309-4.227C123.311,349.8,128.787,350.796,128.725,351.04z"/>
				</g>
			</g>
		</g>
	</g>
</g>
</svg>
