<?xml version="1.0" encoding="utf-8"?>
<!-- Generator: Adobe Illustrator 27.5.0, SVG Export Plug-In . SVG Version: 6.00 Build 0)  -->
<svg version="1.1" id="Layer_1" xmlns="http://www.w3.org/2000/svg" xmlns:xlink="http://www.w3.org/1999/xlink" x="0px" y="0px"
	 viewBox="0 0 1320 990" style="enable-background:new 0 0 1320 990;" xml:space="preserve">
<rect x="0" y="0" style="fill:#FFFFFF;" width="1320" height="990"/>
<g>
	<g>
		<g>
			<path style="fill:#8EFCFF;" d="M130.874,642.478c0.091,22.83,1.119,45.371,3.049,67.249c0.478,5.472,1.021,10.901,1.612,16.281
				c0.789,7.133,1.873,15.28,3.253,24.202c0.781,5.056,1.654,10.359,2.619,15.865c3.598,20.597,8.478,44.039,14.541,68.01
				c2.465,9.774,5.133,19.632,7.992,29.42c2.451,8.401,5.042,16.752,7.767,24.956h1009.457c3.211-4.24,7.415-15.675,11.605-28.308
				c2.472-7.435,4.929-15.281,7.183-22.315c0.88-2.754,1.725-5.388,2.528-7.817c1.542-4.654,3.049-9.267,4.528-13.837
				c9.584-29.674,17.858-57.474,24.906-83.544c1.064-3.943,2.106-7.845,3.113-11.71c5.648-21.597,10.422-41.955,14.386-61.151
				c99.986-484.262-318.766-226.78-407.506-343.645C788.651,246,741.788,178.589,665.012,115.601
				c-81.615-66.96-194.268-51.609-277.22-3.789C302.72,160.858,246.978,237.846,192.411,342.62
				C150.034,424.001,130.409,536.352,130.874,642.478z"/>
			<path style="fill:#FFFFFF;" d="M894.523,572.351H668.461c-8.956-9.338,12.967-22.604,28.341-9.392
				c-2.453-19.515,20.748-24.716,25.344-5.331c19.251-29.701,37.235-26.653,59.177-4.898c3.688-15.732,18.992-13.76,28.656-4.851
				c6.134-11.436,21.139-15.285,27.728-2.253c12.06-24.082,45.583-4.13,27.509,12.696c8.602-2.81,29.387-10.116,35.143,1.201
				C903.362,565.424,900.036,569.694,894.523,572.351z"/>
			<path style="fill:#FFFFFF;" d="M423.162,516.826H52.869c-14.67-15.295,21.241-37.026,46.424-15.385
				c-4.018-31.966,33.985-40.486,41.513-8.732c31.534-48.652,60.992-43.659,96.932-8.024c6.042-25.77,31.111-22.54,46.94-7.947
				c10.047-18.733,34.626-25.038,45.419-3.691c19.755-39.447,74.666-6.765,45.06,20.797c14.09-4.603,48.135-16.57,57.564,1.967
				C437.64,505.479,432.193,512.473,423.162,516.826z"/>
			<g>
				
					<ellipse transform="matrix(0.9871 -0.1602 0.1602 0.9871 -25.7946 87.5686)" style="fill:#FFF239;" cx="530.254" cy="203.777" rx="72.89" ry="72.889"/>
				<path style="fill:#FFFFFF;" d="M526.198,226.569H300.137c-8.956-9.337,12.967-22.604,28.341-9.392
					c-2.453-19.514,20.748-24.716,25.344-5.331c19.251-29.701,37.235-26.653,59.177-4.898c3.688-15.733,18.992-13.76,28.656-4.851
					c6.134-11.437,21.139-15.286,27.727-2.253c12.06-24.082,45.583-4.13,27.509,12.696c8.602-2.81,29.386-10.115,35.143,1.202
					C535.038,219.642,531.712,223.912,526.198,226.569z"/>
				<path style="fill:#FFFFFF;" d="M718.692,292.944H431.687c-11.37-11.854,16.464-28.697,35.982-11.924
					c-3.114-24.776,26.341-31.38,32.176-6.768c24.441-37.709,47.274-33.839,75.13-6.219c4.682-19.974,24.112-17.47,36.383-6.16
					c7.786-14.52,26.837-19.406,35.202-2.86c15.312-30.575,57.872-5.244,34.925,16.119c10.921-3.568,37.309-12.843,44.617,1.525
					C729.915,284.149,725.692,289.57,718.692,292.944z"/>
			</g>
		</g>
		<g>
			<path style="fill:#48BBD7;" d="M838.366,685.828l393.549,46.813c1.064-3.943,2.106-7.845,3.113-11.71
				c5.648-21.597,10.422-41.955,14.386-61.151l-30.765-18.316c-18.069,6.148-33.688,13.387-51.166,13.148
				c-17.83-0.254-34.321-2.19-52.461,1.528c-19.421,3.993-27.977,11.119-48.595,2.69c-20.034-8.197-27.153-13.45-48.588-9.028
				c-38.061,7.866-74.305,14.844-111.866,6.45C873.511,648.999,862.414,664.153,838.366,685.828z"/>
			<g>
				<path style="fill:#3C95B1;" d="M130.874,642.478c0.049,12.536,0.38,24.978,1,37.28c0.493,10.104,1.176,20.097,2.05,29.969
					c0.478,5.472,1.021,10.901,1.612,16.281c0.331,2.986,0.711,6.148,1.148,9.472c0.598,4.619,1.302,9.541,2.105,14.731
					c10.246-1,20.393-2.204,29.843-3.583c55.587-8.085,110.837-11.895,166.382-19.07c112.534-14.527,225.111-40.251,338.342-44.264
					c-1.177-2.408-2.648-4.549-4.373-6.464c-20.188-22.428-74.888-13.415-99.415-22.104c-1.184-0.423-2.359-0.88-3.521-1.367
					c-17.556-7.386-32.674-22.118-50.876-27.21c-18.26-5.112-32.153,2.74-50.757,7.38c-14.978,3.74-37.131,10.823-52.348,9.577
					c-15.02-1.232-28.913-16.266-44.377-16.893c-32.561-1.317-45.124,31.618-82.86,12.611
					c-26.442-13.308-60.446-37.391-88.684-33.328C184.941,607.101,153.598,627.085,130.874,642.478z"/>
				<path style="fill:#C4C424;" d="M131.873,679.758c0.493,10.104,1.176,20.097,2.05,29.969c0.478,5.472,1.021,10.901,1.612,16.281
					c0.331,2.986,0.711,6.148,1.148,9.472c19.295-2.915,38.645-6.416,57.299-9.035c79.473-11.146,159.242-29.913,240.377-34.385
					c50.905-2.802,102.45-2.817,152.587-9.985c23.625-3.38,54.877-1.367,82.036-5.246c12.351-1.76,23.858-4.746,33.42-10.014
					c-39.549-14.594-91.238-16.509-134.608-18.819c-5.155-0.275-11.889,4.63-16.656,3.918c-33.878-5.062-69.34,0.084-103.633,2.176
					c-34.576,2.106-70.361,2.204-105.634,2.162C271.364,656.168,201.63,673.681,131.873,679.758z"/>
			</g>
			<path style="fill:#00D3D0;" d="M133.923,709.727c0.478,5.472,1.021,10.901,1.612,16.281c1.232,11.182,3.204,24.843,5.873,40.068
				c3.598,20.597,8.478,44.039,14.541,68.01c2.465,9.774,5.133,19.632,7.992,29.42c2.451,8.401,5.042,16.752,7.767,24.956h1009.457
				c3.211-4.24,7.415-15.675,11.605-28.308c2.472-7.435,4.929-15.281,7.183-22.315c0.88-2.754,1.725-5.388,2.528-7.817
				c1.542-4.654,3.049-9.267,4.528-13.837c11.035-34.16,20.329-65.848,28.019-95.254c-166.418-34.209-365.679-54.116-579.833-54.116
				C465.618,666.815,287.707,682.412,133.923,709.727z"/>
			<path style="fill:#B0FFFA;" d="M89.771,847.084c8.119,14.626,24.378,15.669,43.37,16.217c10.225,0.295,20.492,0.345,30.801,0.204
				c51.411-0.69,103.633-6.034,154.701-8.183c107.492-4.549,215.702-2.767,323.237-2.584c115.908,0.197,400.388-5.253,550.891,7.415
				c17.689,1.493,33.526,3.232,47.018,5.26l-3.141-19.885c-10.154-2.662-22.449-5.233-36.694-7.69
				c0.88-2.754,1.725-5.388,2.528-7.817c1.542-4.654,3.049-9.267,4.528-13.837c-24.491-11.331-48.877-27.449-73.382-21.013
				c-14.894,3.916-25.576,12.654-41.737,13.196c-17.238,0.578-32.681-6.929-48.588-10.091c-17.175-3.414-33.019-1.133-50.708-0.472
				c-20.569,0.768-32.371-5.738-50.814-12.674c-30.722-11.563-65.516-13.886-99.302-18.907
				c-37.448-5.563-67.086-9.753-105.056-1.753c-32.589,6.866-64.101,12.907-99.768,7.986c-37.891-5.232-61.756-3.894-97.183,6.337
				c-32.582,9.408-65.869-1.964-99.303-2.112c-32.455-0.148-63.326,15.239-97.184,16.893c-35.384,1.725-72.163-0.141-105.64-8.443
				c-25.639-6.359-64.439-17.928-96.937-19.055c3.598,20.597,8.478,44.039,14.541,68.01
				C128.127,838.098,105.741,842.457,89.771,847.084z"/>
		</g>
	</g>
	
		<linearGradient id="SVGID_1_" gradientUnits="userSpaceOnUse" x1="4192.2549" y1="717.2962" x2="4192.2549" y2="706.3915" gradientTransform="matrix(1 0 0 1 -3392.6113 0)">
		<stop  offset="0" style="stop-color:#DA7900"/>
		<stop  offset="0.2725" style="stop-color:#E2912D"/>
		<stop  offset="0.8871" style="stop-color:#F4CC9E"/>
		<stop  offset="1" style="stop-color:#F8D7B3"/>
	</linearGradient>
	<path style="fill:url(#SVGID_1_);" d="M795.202,705.759c0,0,1.67,0.627,2.904,2.442c1.235,1.814,4.519,6.166,3.894,8.557
		c0,0,0.329,0.082,1.013-1.443c0.684-1.525,1.483-3.412,0.829-5.591c-0.653-2.179-2.106-3.24-3.703-3.557
		C798.541,705.849,795.202,705.759,795.202,705.759z"/>
	<path style="fill:#2241CD;" d="M488.492,793.271c0,0,12.896,1.474,26.872-8.241c0,0,6.887-6.883,6.81-7.894
		c-0.078-1.011-0.972-1.578-2.307-1.457c-1.337,0.122-1.093,0.211-2.185-0.016c-1.093-0.226-1.356,0.348-2.318,0
		c-0.962-0.348-2.225-0.367-2.869-0.055c-0.643,0.313-1.667-0.137-2.222-0.222c-0.556-0.084-8.501-0.29-12.63-0.544
		c-4.129-0.255-6.035-0.838-9.151,0c-3.114,0.837-4.208-0.23-5.786,0c-1.579,0.23-3.413-0.23-4.561,0
		c-1.147,0.23-20.359-0.228-20.359-0.228l-5.561,7.26C452.225,781.873,467.684,790.461,488.492,793.271z"/>
	<path style="fill:#FFC53A;" d="M297.439,878.865c4.019,0.185,5.75,2.358,9.842,1.971c4.134-0.391,6.311-2.594,10.579-1.251
		c3.491,1.099,4.628,4.52,7.555,5.842c3.583,1.619,5.394-0.281,9.345-0.207c7.435,0.14,13.87,10.516,6.337,10.579l-57.742-2.817
		C285.648,886.612,288.894,878.471,297.439,878.865z"/>
	<path style="fill:#FFC53A;" d="M521.667,855.551c3.188-0.006,4.639,1.648,7.862,1.188c3.258-0.466,4.896-2.292,8.325-1.391
		c2.804,0.737,3.833,3.401,6.199,4.337c2.897,1.146,4.259-0.427,7.387-0.517c5.889-0.171,11.373,7.796,5.416,8.131l-45.8-0.042
		C512.629,862.128,514.889,855.564,521.667,855.551z"/>
	<g>
		<g>
			<path style="fill:#FF940F;" d="M61.519,863.907c0,28.998,241.856,52.799,550.335,55.32c1.316,0.014,2.633,0.021,3.95,0.028
				c11.886,0.092,23.871,0.148,35.941,0.169c3.021,0.007,6.035,0.015,9.063,0.015c3.02,0.007,6.049,0.007,9.083,0.007
				c2.88,0,5.753,0,8.62-0.007c245.017-0.458,454.249-14.309,544.503-33.906c30.603-6.647,47.525-13.957,47.525-21.625
				c0-4.465-5.725-8.796-16.534-12.957c-4.802-1.845-10.605-3.647-17.358-5.422c-10.154-2.662-22.449-5.233-36.694-7.69
				c-75.009-12.943-204.126-22.83-359.622-27.125c-1.626-0.042-3.261-0.092-4.901-0.134c-0.93-0.028-1.867-0.049-2.796-0.071
				c-0.683-0.021-1.366-0.042-2.049-0.057c-12.197-0.317-24.541-0.598-37.04-0.845c-1.542-0.028-3.077-0.063-4.626-0.091h-0.007
				c-0.761-0.014-1.521-0.029-2.289-0.042c-0.916-0.015-1.838-0.035-2.754-0.05c-4.548-0.085-9.112-0.162-13.703-0.232
				c-1.444-0.028-2.888-0.049-4.331-0.07c-1.013-0.015-2.028-0.029-3.042-0.05h-0.007c-2.471-0.035-4.936-0.07-7.414-0.098
				c-1.366-0.021-2.733-0.043-4.098-0.056c-1.465-0.021-2.937-0.035-4.401-0.057c-0.719-0.007-1.443-0.021-2.162-0.028
				c-0.866-0.007-1.732-0.021-2.598-0.029c-17.682-0.204-35.61-0.337-53.736-0.401c-1.415,0-2.83-0.007-4.246-0.007
				c-0.204-0.007-0.409-0.007-0.605-0.007h-2.451c-0.655-0.007-1.31-0.007-1.958-0.007c-4.351-0.008-8.718-0.015-13.09-0.015
				c-1.915,0-3.83,0-5.739,0.007c-0.591-0.007-1.183,0-1.767,0h-4.802c-1.007,0.008-2.008,0.008-3.014,0.008
				c-2.577,0.007-5.161,0.013-7.732,0.028c-1.655,0-3.309,0.007-4.965,0.021c-0.534,0-1.069,0-1.604,0.007
				c-2.261,0.007-4.521,0.014-6.774,0.029h-0.007c-2.458,0.013-4.902,0.027-7.345,0.042c-1.661,0.014-3.317,0.028-4.971,0.035
				c-0.535,0.007-1.071,0.007-1.606,0.014c-0.767,0.007-1.528,0.014-2.289,0.021h-0.007c-1.303,0.008-2.592,0.014-3.888,0.029
				c-8.041,0.07-16.034,0.148-23.977,0.247c-25.089,0.31-49.694,0.753-73.713,1.338c-0.81,0.021-1.62,0.035-2.429,0.056
				c-0.479,0.015-0.951,0.029-1.422,0.035c-1.656,0.043-3.303,0.085-4.951,0.127c-4.837,0.126-9.647,0.253-14.429,0.387h-0.007
				c-2.416,0.07-4.817,0.141-7.211,0.204c-0.514,0.021-1.035,0.035-1.549,0.049c-1.528,0.042-3.049,0.092-4.57,0.14
				c-0.204,0-0.407,0.007-0.612,0.021c-0.832,0.021-1.662,0.043-2.486,0.071c-0.43,0.014-0.852,0.028-1.275,0.043
				c-1.696,0.049-3.393,0.106-5.091,0.161c-4.401,0.141-8.781,0.289-13.14,0.437c-3.134,0.113-6.253,0.219-9.358,0.332h-0.007
				c-0.606,0.021-1.211,0.049-1.81,0.07c-0.88,0.028-1.76,0.063-2.641,0.092c-1.648,0.063-3.288,0.126-4.929,0.19
				c-1.683,0.063-3.366,0.126-5.042,0.196c-15.118,0.592-29.913,1.24-44.363,1.937c-0.88,0.043-1.76,0.084-2.633,0.127
				c-0.662,0.035-1.324,0.063-1.979,0.098c-1.485,0.078-2.971,0.148-4.45,0.218c-6.5,0.338-12.922,0.676-19.273,1.021
				c-2.591,0.141-5.176,0.289-7.739,0.437c-1.127,0.056-2.253,0.127-3.38,0.191h-0.007c-0.796,0.042-1.577,0.091-2.372,0.133h-0.008
				c-0.493,0.035-0.993,0.063-1.493,0.092c-0.275,0.014-0.549,0.028-0.824,0.043c-0.422,0.028-0.844,0.056-1.261,0.076
				c-1.513,0.092-3.021,0.184-4.521,0.276c-15.4,0.929-30.314,1.922-44.694,2.971c-0.598,0.042-1.197,0.091-1.795,0.126
				c-1.043,0.085-2.084,0.162-3.127,0.232c-1.662,0.128-3.317,0.254-4.964,0.381c-48.257,3.683-90.176,8.041-124.033,12.922
				c-27.822,4.013-50.208,8.372-66.178,12.999c-9.316,2.69-16.457,5.478-21.224,8.338c-4.225,2.521-6.592,5.112-6.972,7.739
				C61.541,863.406,61.519,863.661,61.519,863.907z"/>
			<g>
				<g>
					<path style="fill:#8D9800;" d="M1012.053,297.578c-2.307-5.786-1.359-21.578-4.742-26.376
						c-2.123,7.702-5.545,18.535-8.736,25.778c-27.257-19.347-69.532-39.98-98.777-56.702c9.466-3.873,65.961-16.042,72.686-21.746
						c3.517,2.23,12.598,17.947,15.11,21.411c6.131,9.817-8.416-19.707-9.867-23.055c4.023-0.092,30.649-3.044,56.382,3.373
						c0.755,1.93,1.444,3.859,2.019,5.792c2.844,9.55,4.04,20.077,7.813,28.975c-1.787-10.556-2.577-21.719-3.185-32.884
						c10.415,3.333,20.34,8.421,28.153,16.103c9.138,8.988,23.075,45.985,9.133,74.91
						C1072.446,324.778,1024.317,298.014,1012.053,297.578z"/>
					<path style="fill:#8D9800;" d="M1139.365,297.5c2.666-5.628,2.715-21.451,6.391-26.025c1.634,7.82,4.368,18.848,7.096,26.277
						c28.42-17.595,65.481-33.754,95.721-48.602c-9.204-4.461-58.393-21.933-64.742-28.047
						c-3.653,2.003-13.703,17.118-16.429,20.417c-6.735,9.41,9.641-19.14,11.299-22.388c-4.009-0.345-30.397-4.966-56.483-0.182
						c-0.874,1.878-1.682,3.76-2.38,5.653c-3.439,9.352-5.296,19.783-9.62,28.427c2.446-10.423,3.939-21.514,5.249-32.617
						c-10.606,2.669-20.831,7.121-29.112,14.298c-9.686,8.395-25.923,44.443-13.83,74.187
						C1077.381,320.845,1127.098,297.162,1139.365,297.5z"/>
					<path style="fill:#AEB200;" d="M1140.829,288.891c-8.614-11.244-18.079-20.534-29.359-28.689
						c-8.309-6.008-18.444-9.324-26.569-15.471l-7.575,7.926c-14.498,11.082-24.434,29.809-35.292,44.952
						c5.005,4.314,15.506,13.392,15.506,13.392s13.06-15.433,19.904-18.283c-4.795,6.332-11.333,16.84-17.14,20.976
						c14.007,13.303,36.131,25.754,52.089,37.979c3.25-5.228,6.203-11.192,9.305-16.746c3.518,8.05,0.992,27.421,0.992,27.421
						s9.281,7.91,14.335,11.696c1.92-9.15,1.871-21.671,1.384-31.527c4.334,10.341,5.299,25.305,12.479,34.071
						c5.475,6.681,18.2,9.587,25.386,14.618C1173.767,355.405,1162.866,317.65,1140.829,288.891z"/>
					<path style="fill:#7F8200;" d="M1165.518,263.982c-12.082-7.391-24.255-12.654-37.714-16.205
						c-9.915-2.617-20.563-2.063-30.357-4.875l-4.216,10.119c-9.539,15.555-12.073,36.603-16.757,54.64
						c6.223,2.222,19.286,6.916,19.286,6.916s6.635-19.099,11.994-24.22c-2.196,7.634-4.516,19.79-8.447,25.739
						c17.857,7.373,42.977,11.031,62.265,16.697c1.151-6.049,1.762-12.675,2.658-18.973c6.178,6.245,10.791,25.229,10.791,25.229
						s11.505,4.04,17.582,5.756c-1.501-9.228-6.049-20.893-10.051-29.915c7.765,8.091,14.046,21.705,23.902,27.3
						c7.512,4.264,20.428,2.4,28.944,4.507C1220.179,314.195,1196.425,282.89,1165.518,263.982z"/>
					<path style="fill:#7F8200;" d="M981.399,267.648c12.532-6.6,25.017-11.069,38.678-13.75
						c10.063-1.973,20.653-0.736,30.608-2.912l3.557,10.367c8.519,16.135,9.695,37.303,13.209,55.604
						c-6.352,1.818-19.691,5.663-19.691,5.663s-5.394-19.484-10.413-24.94c1.701,7.76,3.235,20.039,6.775,26.228
						c-18.292,6.21-43.597,8.248-63.209,12.663c-0.762-6.111-0.942-12.764-1.431-19.106c-6.568,5.837-12.392,24.484-12.392,24.484
						s-11.74,3.292-17.916,4.613c2.091-9.112,7.379-20.461,11.954-29.205c-8.269,7.574-15.413,20.757-25.608,25.707
						c-7.77,3.772-20.54,1.081-29.174,2.638C923.625,314.243,949.341,284.529,981.399,267.648z"/>
					<g>
						<path style="fill:#A63F40;" d="M1120.264,571.484c-0.75,18.766-1.917,37.505-3.398,55.915
							c-1.482,18.417-3.275,36.501-5.255,53.965c-1.98,17.465-4.132,34.315-6.362,50.256c-2.227,15.94-4.503,30.978-6.694,44.841
							c-2.192,13.864-4.331,26.54-6.248,37.769c-0.979,5.611-1.896,10.862-2.746,15.717c-0.24,1.36-0.48,2.686-0.711,3.985h-40.374
							c0.817-3.588,1.712-7.499,2.675-11.72c1.062-4.754,2.214-9.897,3.447-15.389c0.069-0.322,0.141-0.648,0.212-0.971
							c2.363-10.751,4.988-22.825,7.714-35.979c2.151-10.394,4.381-21.457,6.63-33.072c0.242-1.246,0.481-2.499,0.725-3.758
							c0.442-2.308,0.884-4.637,1.327-6.987c2.934-15.571,5.832-32.015,8.592-49.059c5.514-34.089,10.376-70.588,13.58-107.224
							c0.178-2.006,0.35-4.016,0.515-6.023c0.188-2.285,0.371-4.57,0.548-6.852c1.082-14.021,1.914-28.021,2.468-41.86
							c0.728-18.07,0.975-35.871,0.739-53.087c-0.011-1.077-0.025-2.151-0.039-3.221c-0.011-1.074-0.021-2.144-0.053-3.2
							c-0.057-2.119-0.113-4.232-0.169-6.33c-0.057-2.105-0.115-4.198-0.171-6.282c-0.09-2.116-0.18-4.222-0.267-6.315
							c-0.089-2.095-0.178-4.18-0.265-6.249c-0.109-2.032-0.216-4.051-0.322-6.059c-0.111-2.032-0.221-4.053-0.33-6.06
							c-0.056-1.003-0.113-2.003-0.165-2.998c-0.023-0.329-0.043-0.657-0.066-0.983c-0.043-0.666-0.087-1.333-0.127-1.994
							c-0.055-0.884-0.108-1.764-0.161-2.645c-0.923-14.85-2.123-28.868-3.444-41.839c-0.364-3.431-0.701-6.795-1.073-10.078
							c-0.399-3.277-0.79-6.48-1.17-9.598c-0.096-0.782-0.19-1.557-0.282-2.327c-0.095-0.769-0.184-1.536-0.296-2.287
							c-0.213-1.507-0.42-2.994-0.625-4.461c-0.413-2.93-0.812-5.78-1.198-8.541c-0.896-5.584-1.737-10.81-2.516-15.643
							c-0.407-2.521-0.744-4.868-1.067-7.097c-0.323-2.206-0.63-4.307-0.921-6.304c-0.597-3.952-1.178-7.417-1.777-10.345
							c-0.298-1.462-0.595-2.791-0.89-3.977c-0.297-1.185-0.591-2.217-0.867-3.114c-0.563-1.77-1.065-2.921-1.369-3.502
							c-0.024-0.051-0.022-0.042-0.033-0.062l-0.02-0.043c-0.013-0.028-0.021-0.053-0.031-0.077
							c-0.002-0.015-0.006-0.026-0.012-0.04c-0.01-0.019-0.047-0.073-0.069-0.104c-0.049-0.077-0.093-0.141-0.135-0.2
							c-0.16-0.236-0.243-0.357-0.243-0.357l10.441-7.484c0,0,0.089,0.117,0.26,0.345c0.041,0.057,0.089,0.121,0.143,0.192
							c0.028,0.038,0.059,0.081,0.091,0.124c0.047,0.07,0.097,0.146,0.151,0.221c0.101,0.158,0.211,0.327,0.329,0.51
							c0.06,0.093,0.12,0.187,0.182,0.286c0.058,0.094,0.135,0.215,0.176,0.287c0.817,1.372,1.712,3.267,2.579,5.611
							c1.734,4.673,3.327,11.185,4.939,19.299c0.392,2.009,0.806,4.129,1.238,6.349c0.424,2.2,0.865,4.485,1.351,6.779
							c1.007,4.803,2.095,9.993,3.258,15.542c0.538,2.823,1.088,5.739,1.655,8.74c0.281,1.502,0.571,3.024,0.863,4.57
							c0.152,0.772,0.277,1.545,0.413,2.327c0.131,0.778,0.264,1.565,0.399,2.355c0.54,3.161,1.093,6.404,1.659,9.725
							c0.536,3.323,1.04,6.727,1.58,10.202c0.031,0.213,0.061,0.424,0.093,0.634c2.056,13.734,4.02,28.624,5.71,44.368
							c0.109,1.001,0.225,2.004,0.338,3.01c0.103,1.007,0.207,2.015,0.312,3.027c0.207,2.027,0.415,4.064,0.622,6.115
							c0.104,1.023,0.212,2.052,0.316,3.084c0.054,0.516,0.107,1.033,0.161,1.55l0.078,0.776l0.078,0.854
							c0.185,2.063,0.371,4.14,0.558,6.228c0.19,2.089,0.378,4.188,0.566,6.296c0.164,2.147,0.322,4.302,0.49,6.472
							c0.159,2.171,0.319,4.354,0.484,6.543c0.085,1.099,0.146,2.189,0.213,3.284c0.064,1.095,0.13,2.193,0.193,3.294
							c1.077,17.589,1.687,35.795,1.822,54.291C1121.355,533.93,1121.018,552.718,1120.264,571.484z"/>
						<g>
							<path style="fill:#882E33;" d="M1097.779,595.967c-0.034-0.001-0.066-0.004-0.099-0.004
								C1097.708,595.965,1097.741,595.967,1097.779,595.967z"/>
							<path style="fill:#882E33;" d="M1120.264,571.484c-0.75,18.766-1.917,37.505-3.398,55.915
								c-1.482,18.417-3.275,36.501-5.255,53.965c-1.98,17.465-4.132,34.315-6.362,50.256c-2.227,15.94-4.503,30.978-6.694,44.841
								c-2.192,13.864-4.331,26.54-6.248,37.769c-0.979,5.611-1.896,10.862-2.746,15.717c-0.24,1.36-0.48,2.686-0.711,3.985h-40.374
								c0.817-3.588,1.712-7.499,2.675-11.72c1.062-4.754,2.214-9.897,3.447-15.389c0.069-0.322,0.141-0.648,0.212-0.971
								c13.264-6.641,35.473-21.477,42.36-61.019c-8.262-3.129-18.159-6.043-28.016-8.032c0.242-1.246,0.481-2.499,0.725-3.758
								c12.163-0.113,25.356-0.541,29.73-5.529c2.407-2.748,2.995-23.098,2.223-26.752c-1.825-8.68-7.483-10.554-16.496-13.773
								c14.351-6.841,11.493-27.272,13.625-42.436c1.417-10.072,10.89-37.124,1.293-42.749c1.99-0.498,4.15-2.12,6.211-2.502
								c-2.74-1.512-4.803-3.31-8.689-3.337c1.075-0.005,5.587-1.012,7.511-1.047c2.165-8.994,2.487-19.518,3.372-28.891
								c-4.748-0.677-9.754-1.42-14.768-2.276c0.188-2.285,0.371-4.57,0.548-6.852c6.605-1.24,13.258-2.477,19.842-3.575
								c1.199-23.687,3.468-47.515,2.249-71.611c-4.627-0.23-9.368-0.178-14.047-0.109c4.173-1.473,8.398-1.707,12.922-2.475
								c-0.265-22.199-4.858-44.054-4.497-65.992c-5.04,0.263-10.052,0.707-15.109,1.12c-0.043-0.666-0.087-1.333-0.127-1.994
								c-0.055-0.884-0.108-1.764-0.161-2.645c5.317-1.488,10.726-2.826,15.401-3.56c0.525-10.611-1.187-20.896-1.187-31.2
								c-4.583,1.484-9.531,2.634-13.933,4.497c5.065-3.609,9.238-8.464,13.482-13.119c2.056,13.734,4.02,28.624,5.71,44.368
								c0.109,1.001,0.225,2.004,0.338,3.01c0.103,1.007,0.207,2.015,0.312,3.027c0.207,2.027,0.415,4.064,0.622,6.115
								c0.104,1.023,0.212,2.052,0.316,3.084c0.054,0.516,0.107,1.033,0.161,1.55l0.078,0.776l0.078,0.854
								c0.185,2.063,0.371,4.14,0.558,6.228c0.19,2.089,0.378,4.188,0.566,6.296c0.164,2.147,0.322,4.302,0.49,6.472
								c0.159,2.171,0.319,4.354,0.484,6.543c0.085,1.099,0.146,2.189,0.213,3.284c0.064,1.095,0.13,2.193,0.193,3.294
								c1.077,17.589,1.687,35.795,1.822,54.291C1121.355,533.93,1121.018,552.718,1120.264,571.484z"/>
						</g>
					</g>
					<path style="fill:#C6C600;" d="M1112.397,261.497c-3.409,17.028-15.023,42.956-14.949,51.39
						c-5.678,2.561-21.499,2.314-26.141,5.902c7.787,1.782,18.763,4.723,26.141,7.589c-18.124,28.085-36.868,71.232-52.28,101.187
						c-4.289-9.285-18.942-65.187-24.937-71.653c2.07-3.614,17.37-13.378,20.721-16.041c9.536-6.56-19.316,9.279-22.596,10.876
						c-0.272-4.017-4.397-30.486,0.877-56.477c1.894-0.841,3.791-1.614,5.696-2.273c9.416-3.264,19.878-4.923,28.603-9.086
						c-10.467,2.25-21.584,3.536-32.712,4.636c1.218-4.474,2.752-8.873,4.674-13.077c2.614-5.715,5.947-11.066,10.168-15.761
						c8.574-9.527,44.92-25.086,74.433-12.436C1113.799,247.863,1113.946,253.759,1112.397,261.497z"/>
				</g>
				<g>
					<path style="fill:#8D9800;" d="M1092.906,521.713c-1.314-3.612-0.436-13.335-2.431-16.358
						c-1.454,4.711-3.767,11.33-5.872,15.738c-16.45-12.444-42.141-25.961-59.868-36.821c5.912-2.212,40.986-8.663,45.241-12.055
						c2.129,1.441,7.435,11.306,8.921,13.489c3.598,6.169-4.824-12.314-5.656-14.406c2.483,0.021,18.962-1.305,34.714,3.135
						c0.431,1.205,0.819,2.408,1.138,3.611c1.576,5.943,2.117,12.458,4.277,18.019c-0.904-6.543-1.183-13.446-1.35-20.343
						c6.363,2.25,12.39,5.574,17.066,10.458c5.468,5.716,13.374,28.796,4.232,46.378
						C1129.648,539.62,1100.461,522.212,1092.906,521.713z"/>
					<path style="fill:#8D9800;" d="M1171.437,524.045c1.749-3.421,2.075-13.181,4.427-15.934
						c0.863,4.855,2.343,11.708,3.886,16.342c17.86-10.322,41.021-19.596,59.953-28.189c-5.596-2.925-35.61-14.62-39.412-18.512
						c-2.292,1.167-8.771,10.302-10.515,12.287c-4.33,5.68,6.305-11.625,7.388-13.598c-2.467-0.289-18.657-3.632-34.838-1.17
						c-0.573,1.144-1.106,2.289-1.572,3.444c-2.297,5.704-3.637,12.104-6.465,17.355c1.703-6.382,2.831-13.196,3.846-20.021
						c-6.591,1.449-12.981,4.002-18.224,8.275c-6.131,4.996-16.821,26.928-9.916,45.501
						C1132.766,537.287,1163.876,523.608,1171.437,524.045z"/>
					<path style="fill:#AEB200;" d="M1172.501,518.761c-5.104-7.096-10.767-13.003-17.573-18.244
						c-5.013-3.86-11.203-6.095-16.099-10.038l-4.821,4.747c-9.15,6.566-15.629,17.929-22.609,27.069
						c3.008,2.753,9.314,8.548,9.314,8.548s8.346-9.274,12.62-10.904c-3.076,3.817-7.305,10.174-10.964,12.618
						c8.392,8.468,21.804,16.562,31.42,24.402c2.103-3.165,4.036-6.789,6.053-10.157c2.018,5.032,0.1,16.934,0.1,16.934
						s5.576,5.052,8.623,7.482c1.354-5.608,1.56-13.331,1.442-19.421c2.481,6.46,2.796,15.708,7.061,21.249
						c3.252,4.224,11.047,6.255,15.386,9.492C1191.573,560.406,1185.555,536.914,1172.501,518.761z"/>
					<path style="fill:#7F8200;" d="M1188.194,503.86c-7.314-4.786-14.725-8.258-22.958-10.701
						c-6.068-1.799-12.646-1.658-18.635-3.574l-2.79,6.162c-6.175,9.417-8.131,22.353-11.356,33.391
						c3.796,1.488,11.766,4.626,11.766,4.626s4.449-11.656,7.851-14.715c-1.497,4.667-3.157,12.123-5.691,15.718
						c10.876,4.881,26.302,7.607,38.094,11.462c0.823-3.708,1.324-7.785,1.995-11.652c3.693,3.969,6.183,15.764,6.183,15.764
						s7.021,2.708,10.738,3.88c-0.753-5.721-3.341-13.002-5.641-18.64c4.639,5.135,8.259,13.651,14.232,17.286
						c4.554,2.771,12.557,1.862,17.769,3.321C1220.973,535.855,1206.907,516.1,1188.194,503.86z"/>
					<path style="fill:#7F8200;" d="M1074.557,502.68c7.854-3.838,15.639-6.361,24.115-7.759c6.243-1.029,12.752-0.069,18.932-1.225
						l2.001,6.462c4.954,10.112,5.283,23.191,7.108,34.544c-3.951,1.003-12.251,3.126-12.251,3.126s-2.963-12.12-5.956-15.577
						c0.905,4.817,1.621,12.42,3.689,16.303c-11.4,3.489-27.046,4.273-39.226,6.628c-0.356-3.782-0.342-7.889-0.527-11.811
						c-4.159,3.478-8.1,14.871-8.1,14.871s-7.303,1.812-11.138,2.511c1.461-5.581,4.936-12.484,7.921-17.792
						c-5.243,4.518-9.895,12.516-16.276,15.379c-4.865,2.182-12.691,0.282-18.045,1.082
						C1038.049,530.339,1054.467,512.492,1074.557,502.68z"/>
					<g>
						<path style="fill:#A63F40;" d="M1154.534,692.688c-0.814,11.563-1.885,23.101-3.141,34.427
							c-1.259,11.332-2.703,22.453-4.25,33.188c-1.548,10.737-3.191,21.089-4.864,30.88c-1.671,9.791-3.356,19.024-4.966,27.535
							c-1.612,8.509-3.17,16.289-4.56,23.18c-0.709,3.442-1.373,6.665-1.988,9.644c-0.174,0.833-0.346,1.648-0.512,2.444
							l-24.905-0.753c0.572-2.199,1.195-4.594,1.87-7.18c0.743-2.913,1.55-6.063,2.412-9.426c0.05-0.199,0.1-0.397,0.15-0.596
							c1.659-6.588,3.504-13.986,5.432-22.048c1.52-6.371,3.102-13.154,4.708-20.277c0.172-0.763,0.343-1.532,0.517-2.304
							c0.314-1.416,0.631-2.844,0.948-4.285c2.101-9.549,4.196-19.637,6.217-30.1c4.039-20.924,7.72-43.346,10.381-65.885
							c0.148-1.234,0.292-2.47,0.431-3.704c0.159-1.406,0.314-2.812,0.466-4.217c0.93-8.628,1.705-17.248,2.305-25.774
							c0.786-11.132,1.27-22.107,1.448-32.731c0.013-0.665,0.024-1.328,0.036-1.987c0.012-0.663,0.027-1.323,0.026-1.976
							c0.004-1.308,0.01-2.613,0.015-3.908c0.004-1.3,0.007-2.591,0.012-3.877c-0.015-1.306-0.032-2.607-0.045-3.9
							c-0.017-1.293-0.033-2.581-0.048-3.859c-0.029-1.254-0.057-2.503-0.085-3.743c-0.029-1.256-0.061-2.503-0.092-3.744
							c-0.014-0.621-0.031-1.238-0.044-1.852c-0.009-0.204-0.015-0.407-0.022-0.608c-0.015-0.413-0.029-0.824-0.042-1.233
							c-0.018-0.546-0.035-1.089-0.051-1.633c-0.292-9.178-0.77-17.848-1.343-25.871c-0.16-2.124-0.304-4.205-0.473-6.237
							c-0.185-2.028-0.365-4.011-0.541-5.943c-0.045-0.483-0.089-0.964-0.131-1.44c-0.044-0.476-0.085-0.952-0.14-1.415
							c-0.102-0.934-0.202-1.857-0.302-2.765c-0.199-1.816-0.392-3.58-0.578-5.29c-0.449-3.461-0.869-6.701-1.259-9.696
							c-0.204-1.561-0.368-3.016-0.526-4.397c-0.158-1.367-0.307-2.669-0.45-3.905c-0.295-2.45-0.589-4.598-0.902-6.416
							c-0.158-0.906-0.315-1.732-0.474-2.469c-0.161-0.737-0.324-1.379-0.478-1.938c-0.313-1.102-0.602-1.822-0.778-2.186
							c-0.014-0.032-0.014-0.026-0.02-0.039l-0.012-0.027c-0.009-0.017-0.012-0.032-0.017-0.048
							c-0.002-0.009-0.004-0.015-0.007-0.025c-0.007-0.012-0.028-0.047-0.041-0.065c-0.029-0.048-0.055-0.088-0.08-0.126
							c-0.094-0.149-0.143-0.224-0.143-0.224l6.579-4.422c0,0,0.052,0.075,0.154,0.218c0.025,0.036,0.053,0.076,0.085,0.121
							c0.018,0.024,0.036,0.051,0.054,0.078c0.028,0.045,0.057,0.093,0.089,0.14c0.06,0.099,0.126,0.205,0.194,0.32
							c0.036,0.058,0.071,0.117,0.108,0.179c0.033,0.058,0.079,0.136,0.102,0.18c0.479,0.861,0.995,2.047,1.485,3.51
							c0.983,2.915,1.844,6.961,2.687,11.996c0.204,1.246,0.42,2.561,0.646,3.94c0.221,1.365,0.449,2.782,0.705,4.206
							c0.532,2.981,1.106,6.204,1.719,9.648c0.281,1.752,0.564,3.56,0.859,5.422c0.144,0.931,0.295,1.876,0.447,2.835
							c0.079,0.479,0.142,0.959,0.211,1.442c0.066,0.483,0.133,0.972,0.202,1.461c0.274,1.961,0.555,3.97,0.842,6.029
							c0.268,2.062,0.516,4.169,0.784,6.323c0.013,0.131,0.029,0.263,0.044,0.392c1.012,8.511,1.946,17.733,2.693,27.476
							c0.049,0.619,0.101,1.239,0.151,1.863c0.046,0.623,0.092,1.246,0.136,1.873c0.091,1.253,0.182,2.514,0.27,3.783
							c0.045,0.633,0.093,1.27,0.137,1.908c0.024,0.32,0.047,0.641,0.071,0.96l0.034,0.48l0.032,0.528
							c0.074,1.277,0.152,2.561,0.228,3.852c0.078,1.292,0.154,2.591,0.231,3.893c0.061,1.327,0.119,2.661,0.182,4.002
							c0.058,1.34,0.115,2.691,0.175,4.044c0.032,0.679,0.051,1.353,0.07,2.03c0.019,0.676,0.039,1.355,0.058,2.033
							c0.336,10.87,0.371,22.112,0.108,33.524C1155.908,669.545,1155.349,681.128,1154.534,692.688z"/>
						<g>
							<path style="fill:#882E33;" d="M1140.206,707.37c-0.021-0.001-0.04-0.004-0.061-0.004
								C1140.163,707.369,1140.183,707.369,1140.206,707.37z"/>
							<path style="fill:#882E33;" d="M1154.534,692.688c-0.814,11.563-1.885,23.101-3.141,34.427
								c-1.259,11.332-2.703,22.453-4.25,33.188c-1.548,10.737-3.191,21.089-4.864,30.88c-1.671,9.791-3.356,19.024-4.966,27.535
								c-1.612,8.509-3.17,16.289-4.56,23.18c-0.709,3.442-1.373,6.665-1.988,9.644c-0.174,0.833-0.346,1.648-0.512,2.444
								l-24.905-0.753c0.572-2.199,1.195-4.594,1.87-7.18c0.743-2.913,1.55-6.063,2.412-9.426c0.05-0.199,0.1-0.397,0.15-0.596
								c8.306-3.85,22.282-12.585,27.269-36.849c-5.038-2.082-11.089-4.065-17.13-5.476c0.172-0.763,0.343-1.532,0.517-2.304
								c7.504,0.158,15.65,0.141,18.443-2.856c1.536-1.65,2.279-14.192,1.871-16.459c-0.966-5.388-4.419-6.651-9.918-8.804
								c8.98-3.951,7.599-16.606,9.198-25.92c1.063-6.185,7.411-22.695,1.596-26.344c1.237-0.269,2.599-1.231,3.877-1.43
								c-1.661-0.982-2.9-2.13-5.296-2.219c0.664,0.016,3.465-0.52,4.653-0.506c1.503-5.507,1.899-11.992,2.62-17.757
								c-2.918-0.506-5.99-1.059-9.067-1.68c0.159-1.406,0.314-2.812,0.466-4.217c4.097-0.64,8.224-1.278,12.305-1.835
								c1.183-14.588,3.028-29.243,2.726-44.129c-2.849-0.228-5.775-0.284-8.662-0.329c2.601-0.83,5.212-0.896,8.017-1.286
								c0.252-13.696-2.174-27.264-1.54-40.789c-3.113,0.068-6.214,0.248-9.341,0.409c-0.015-0.413-0.029-0.824-0.042-1.233
								c-0.018-0.546-0.035-1.089-0.051-1.633c3.308-0.819,6.67-1.543,9.567-1.909c0.523-6.534-0.342-12.91-0.148-19.267
								c-2.855,0.829-5.929,1.446-8.678,2.513c3.191-2.131,5.856-5.047,8.56-7.84c1.012,8.511,1.946,17.733,2.693,27.476
								c0.049,0.619,0.101,1.239,0.151,1.863c0.046,0.623,0.092,1.246,0.136,1.873c0.091,1.253,0.182,2.514,0.27,3.783
								c0.045,0.633,0.093,1.27,0.137,1.908c0.024,0.32,0.047,0.641,0.071,0.96l0.034,0.48l0.032,0.528
								c0.074,1.277,0.152,2.561,0.228,3.852c0.078,1.292,0.154,2.591,0.231,3.893c0.061,1.327,0.119,2.661,0.182,4.002
								c0.058,1.34,0.115,2.691,0.175,4.044c0.032,0.679,0.051,1.353,0.07,2.03c0.019,0.676,0.039,1.355,0.058,2.033
								c0.336,10.87,0.371,22.112,0.108,33.524C1155.908,669.545,1155.349,681.128,1154.534,692.688z"/>
						</g>
					</g>
					<path style="fill:#C6C600;" d="M1155.475,501.334c-2.421,10.44-10.07,26.215-10.181,31.42
						c-3.551,1.475-13.304,1.026-16.235,3.151c4.77,1.245,11.484,3.265,15.982,5.17c-11.705,16.986-24.073,43.248-34.14,61.438
						c-2.472-5.806-10.465-40.564-14.042-44.663c1.345-2.191,10.964-7.928,13.081-9.508c6.004-3.868-12.088,5.362-14.142,6.286
						c-0.09-2.482-2.141-18.887,1.597-34.82c1.184-0.483,2.368-0.923,3.556-1.295c5.869-1.837,12.354-2.665,17.814-5.071
						c-6.499,1.193-13.381,1.778-20.263,2.249c0.833-2.737,1.862-5.422,3.126-7.98c1.719-3.474,3.876-6.714,6.568-9.531
						c5.466-5.716,28.176-14.634,46.143-6.279C1156.595,492.951,1156.575,496.59,1155.475,501.334z"/>
				</g>
				<g>
					<path style="fill:#8D9800;" d="M826.315,435.39c-3.814-3.875-8.39-16.904-12.735-19.62c0.896,6.915,1.805,16.788,1.688,23.697
						c-28.474-6.354-69.468-8.662-98.655-12.229c6.308-6.317,47.654-35.21,51.135-42.072c3.586,0.604,16.204,10.181,19.398,12.119
						c8.253,5.827-13.437-13.011-15.736-15.215c3.207-1.434,23.635-12.813,46.508-16.349c1.262,1.297,2.468,2.617,3.584,3.977
						c5.519,6.723,10.039,14.789,16.084,20.675c-5.006-7.891-9.417-16.605-13.682-25.384c9.508-0.839,19.215-0.102,28.098,3.438
						c10.393,4.142,34.115,29.2,32.678,57.189C884.104,436.858,836.329,431.595,826.315,435.39z"/>
					<path style="fill:#8D9800;" d="M928.729,392.282c0.241-5.43-5.068-18.178-3.657-23.101c3.96,5.738,9.887,13.689,14.594,18.743
						c16.92-23.766,41.277-49.299,60.59-71.471c-8.914-0.479-54.402,2.094-61.578-0.678c-2.262,2.846-5.237,18.405-6.316,21.982
						c-2.239,9.851,1.286-18.66,1.522-21.834c-3.344,1.077-26.139,6.281-45.512,18.951c-0.068,1.807-0.084,3.594-0.004,5.353
						c0.395,8.687,2.428,17.709,1.872,26.126c-1.556-9.213-4.105-18.644-6.806-28.02c-7.63,5.735-14.355,12.774-18.59,21.348
						c-4.956,10.029-5.835,44.526,13.955,64.369C886.747,432.024,918.744,396.158,928.729,392.282z"/>
					<path style="fill:#AEB200;" d="M926.996,384.859c-10.732-6.134-21.489-10.41-33.323-13.156
						c-8.718-2.026-17.993-1.268-26.609-3.466l-3.415,8.938c-7.918,13.82-9.583,32.247-13.199,48.103
						c5.486,1.779,17.005,5.533,17.005,5.533s5.29-16.833,9.834-21.441c-1.718,6.716-3.426,17.383-6.699,22.674
						c15.77,5.968,37.78,8.507,54.753,12.948c0.849-5.306,1.209-11.103,1.825-16.619c5.551,5.287,10.07,21.729,10.07,21.729
						s10.141,3.227,15.49,4.564c-1.55-8.013-5.822-18.072-9.547-25.836c6.984,6.855,12.819,18.57,21.562,23.196
						c6.663,3.524,17.885,1.562,25.367,3.179C975.989,427.243,954.452,400.55,926.996,384.859z"/>
					<path style="fill:#7F8200;" d="M938.44,356.47c-12.22-1.862-23.795-1.98-35.825-0.288c-8.863,1.246-17.243,5.292-26.074,6.341
						l0.029,9.568c-2.419,15.742,2.66,33.536,4.991,49.63c5.757-0.314,17.855-0.955,17.855-0.955s-1.119-17.61,1.463-23.542
						c0.814,6.883,3.057,17.45,1.906,23.566c16.861-0.105,38.311-5.655,55.747-7.616c-1.119-5.256-2.868-10.796-4.276-16.166
						c7.082,2.938,17.213,16.653,17.213,16.653s10.623-0.637,16.094-1.312c-4.327-6.919-11.933-14.767-18.201-20.674
						c8.983,3.885,18.64,12.716,28.461,13.886c7.487,0.892,17.25-4.977,24.815-6.16C999.401,378.393,969.704,361.234,938.44,356.47z
						"/>
					<path style="fill:#7F8200;" d="M791.529,421.67c7.851-9.547,16.388-17.365,26.474-24.139
						c7.428-4.99,16.369-7.577,23.643-12.694l6.367,7.141c12.313,10.103,20.415,26.739,29.429,40.275
						c-4.497,3.61-13.929,11.214-13.929,11.214s-10.929-13.855-16.811-16.548c3.993,5.669,9.377,15.032,14.319,18.814
						c-12.62,11.183-32.292,21.377-46.579,31.56c-2.681-4.658-5.076-9.951-7.614-14.889c-3.31,6.917-1.692,23.891-1.692,23.891
						s-8.332,6.619-12.857,9.77c-1.396-8.039-0.979-18.96-0.254-27.542c-4.094,8.891-5.384,21.912-11.914,29.343
						c-4.976,5.663-16.162,7.816-22.581,11.986C760.793,478.698,771.44,446.095,791.529,421.67z"/>
					<g>
						<path style="fill:#A63F40;" d="M1005.995,619.201c5.74,15.354,11.137,30.827,16.17,46.143
							c5.035,15.317,9.707,30.476,14.019,45.197c4.311,14.722,8.276,29.008,11.873,42.587c3.595,13.58,6.85,26.45,9.773,38.345
							c2.925,11.897,5.489,22.82,7.744,32.504c1.108,4.846,2.146,9.382,3.104,13.576c0.266,1.175,0.521,2.325,0.776,3.446
							l-32.487,13.65c-0.557-3.162-1.16-6.609-1.81-10.333c-0.753-4.184-1.565-8.714-2.431-13.548
							c-0.052-0.283-0.104-0.57-0.156-0.854c-1.734-9.45-3.703-20.052-5.957-31.558c-1.784-9.09-3.73-18.745-5.846-28.853
							c-0.229-1.083-0.458-2.173-0.688-3.268c-0.425-2.006-0.858-4.03-1.295-6.071c-2.903-13.523-6.133-27.731-9.675-42.38
							c-7.089-29.292-15.516-60.307-25.325-90.869c-0.536-1.674-1.077-3.348-1.622-5.018c-0.622-1.903-1.247-3.802-1.876-5.7
							c-3.871-11.648-7.934-23.194-12.167-34.516c-5.525-14.786-11.344-29.192-17.354-42.966c-0.374-0.863-0.748-1.721-1.121-2.58
							c-0.373-0.859-0.742-1.716-1.125-2.557c-0.763-1.685-1.523-3.365-2.277-5.035c-0.756-1.674-1.513-3.34-2.262-4.996
							c-0.788-1.673-1.572-3.337-2.349-4.992c-0.78-1.654-1.556-3.303-2.326-4.937c-0.773-1.598-1.544-3.188-2.308-4.766
							c-0.776-1.598-1.547-3.186-2.313-4.764c-0.386-0.789-0.769-1.575-1.148-2.356c-0.129-0.259-0.257-0.516-0.384-0.77
							c-0.259-0.523-0.522-1.043-0.777-1.561c-0.343-0.695-0.683-1.384-1.024-2.073c-5.762-11.638-11.468-22.512-16.916-32.501
							c-1.454-2.638-2.861-5.231-4.272-7.748c-1.429-2.5-2.826-4.946-4.186-7.328c-0.34-0.595-0.68-1.189-1.013-1.776
							c-0.337-0.588-0.668-1.175-1.013-1.741c-0.68-1.141-1.348-2.267-2.01-3.378c-1.323-2.22-2.607-4.378-3.85-6.468
							c-2.609-4.191-5.053-8.11-7.314-11.737c-1.179-1.891-2.245-3.666-3.259-5.349c-1.006-1.665-1.962-3.253-2.873-4.761
							c-1.817-2.977-3.454-5.569-4.926-7.723c-0.734-1.074-1.425-2.044-2.061-2.898c-0.64-0.854-1.226-1.585-1.751-2.214
							c-1.05-1.234-1.845-1.992-2.285-2.355c-0.037-0.034-0.033-0.026-0.048-0.039l-0.031-0.028
							c-0.019-0.017-0.035-0.035-0.049-0.052c-0.008-0.009-0.015-0.018-0.025-0.027c-0.014-0.012-0.063-0.043-0.091-0.061
							c-0.064-0.045-0.122-0.082-0.176-0.115c-0.209-0.136-0.315-0.204-0.315-0.204l5.871-9.553c0,0,0.108,0.065,0.325,0.191
							c0.052,0.031,0.114,0.065,0.18,0.104c0.035,0.022,0.076,0.047,0.114,0.069c0.062,0.04,0.129,0.084,0.198,0.126
							c0.135,0.093,0.28,0.192,0.437,0.298c0.078,0.054,0.16,0.111,0.243,0.169c0.077,0.056,0.18,0.127,0.237,0.171
							c1.123,0.828,2.483,2.05,3.974,3.643c2.974,3.174,6.458,7.874,10.498,13.86c0.995,1.483,2.046,3.049,3.144,4.69
							c1.083,1.627,2.213,3.315,3.379,4.996c2.434,3.526,5.064,7.335,7.877,11.406c1.386,2.091,2.815,4.25,4.287,6.473
							c0.734,1.112,1.48,2.24,2.238,3.385c0.384,0.57,0.748,1.149,1.119,1.732c0.37,0.582,0.743,1.171,1.118,1.761
							c1.503,2.362,3.045,4.784,4.622,7.264c1.556,2.493,3.112,5.063,4.72,7.675c0.098,0.162,0.193,0.321,0.29,0.479
							c6.298,10.357,12.913,21.674,19.596,33.771c0.426,0.768,0.857,1.536,1.289,2.308c0.423,0.775,0.848,1.551,1.273,2.33
							c0.853,1.56,1.71,3.13,2.57,4.71c0.43,0.789,0.865,1.579,1.297,2.375c0.216,0.397,0.435,0.795,0.653,1.194l0.325,0.596
							l0.351,0.661c0.847,1.598,1.699,3.207,2.556,4.824c0.859,1.614,1.721,3.241,2.584,4.874c0.856,1.672,1.714,3.354,2.582,5.042
							c0.862,1.692,1.73,3.395,2.601,5.101c0.442,0.855,0.858,1.712,1.282,2.572c0.421,0.858,0.845,1.72,1.268,2.583
							c6.814,13.79,13.461,28.234,19.824,43.069C994.177,588.614,1000.255,603.846,1005.995,619.201z"/>
						<g>
							<path style="fill:#882E33;" d="M996.18,646.503c-0.028,0.011-0.054,0.019-0.08,0.03
								C996.122,646.525,996.15,646.515,996.18,646.503z"/>
							<path style="fill:#882E33;" d="M1005.995,619.201c5.74,15.354,11.137,30.827,16.17,46.143
								c5.035,15.317,9.707,30.476,14.019,45.197c4.311,14.722,8.276,29.008,11.873,42.587c3.595,13.58,6.85,26.45,9.773,38.345
								c2.925,11.897,5.489,22.82,7.744,32.504c1.108,4.846,2.146,9.382,3.104,13.576c0.266,1.175,0.521,2.325,0.776,3.446
								l-32.487,13.65c-0.557-3.162-1.16-6.609-1.81-10.333c-0.753-4.184-1.565-8.714-2.431-13.548
								c-0.052-0.283-0.104-0.57-0.156-0.854c8.428-9.829,21.281-29.274,13.453-63.421c-7.706,0.276-16.654,1.278-25.257,3.009
								c-0.229-1.083-0.458-2.173-0.688-3.268c9.749-4.204,20.219-9.008,22.052-14.501c1.008-3.026-5.4-19.599-7.255-22.279
								c-4.404-6.366-9.591-5.962-17.931-5.503c9.234-10.356,0.026-25.831-3.385-38.755c-2.264-8.581-3.788-33.551-13.412-34.833
								c1.432-1.072,2.622-3.109,4.151-4.113c-2.716-0.292-4.983-1.04-8.119,0.252c0.863-0.369,4.154-2.704,5.689-3.382
								c-1.298-7.97-4.597-16.546-7.053-24.388c-4.052,1.061-8.33,2.156-12.654,3.163c-0.622-1.903-1.247-3.802-1.876-5.7
								c4.895-3.23,9.83-6.475,14.758-9.583c-7.044-19.467-13.276-39.406-22.403-58.382c-3.801,1.378-7.598,3.024-11.34,4.661
								c2.861-2.597,6.182-4.213,9.561-6.361c-7.717-17.773-18.803-33.806-25.93-51.58c-3.966,1.915-7.85,3.967-11.779,6.01
								c-0.259-0.523-0.522-1.043-0.777-1.561c-0.343-0.695-0.683-1.384-1.024-2.073c3.775-2.996,7.676-5.903,11.188-8.072
								c-3.163-8.716-8.019-16.413-11.502-24.703c-3.186,2.744-6.779,5.34-9.692,8.328c2.854-4.616,4.572-9.934,6.413-15.114
								c6.298,10.357,12.913,21.674,19.596,33.771c0.426,0.768,0.857,1.536,1.289,2.308c0.423,0.775,0.848,1.551,1.273,2.33
								c0.853,1.56,1.71,3.13,2.57,4.71c0.43,0.789,0.865,1.579,1.297,2.375c0.216,0.397,0.435,0.795,0.653,1.194l0.325,0.596
								l0.351,0.661c0.847,1.598,1.699,3.207,2.556,4.824c0.859,1.614,1.721,3.241,2.584,4.874c0.856,1.672,1.714,3.354,2.582,5.042
								c0.862,1.692,1.73,3.395,2.601,5.101c0.442,0.855,0.858,1.712,1.282,2.572c0.421,0.858,0.845,1.72,1.268,2.583
								c6.814,13.79,13.461,28.234,19.824,43.069C994.177,588.614,1000.255,603.846,1005.995,619.201z"/>
						</g>
					</g>
					<path style="fill:#C6C600;" d="M894.857,372.43c3.015,14.855,2.436,39.643,5.348,46.406
						c-3.703,3.98-16.517,9.131-19.039,13.587c6.869-1.198,16.695-2.543,23.599-2.732c-5.087,28.727-5.581,69.781-7.854,99.097
						c-6.591-6.021-37.282-46.049-44.293-49.224c0.446-3.608,9.456-16.639,11.251-19.914c5.456-8.503-12.405,13.997-14.503,16.391
						c-1.576-3.14-13.847-23.043-18.39-45.741c1.238-1.316,2.505-2.579,3.813-3.756c6.474-5.807,14.332-10.681,19.943-16.98
						c-7.659,5.35-16.172,10.142-24.751,14.791c-0.535-4.013-0.787-8.07-0.663-12.103c0.172-5.482,1.045-10.915,2.854-16.12
						c3.677-10.564,27.665-35.373,55.688-35.172C891.375,360.987,893.486,365.681,894.857,372.43z"/>
				</g>
				<path style="fill:#8D9800;" d="M892.491,835.822l26.501-18.361l-22.881,20.954c27.384,19.211,57.658,31.361,65.444,25.364
					c0,0,4.055-34.466-39.637-86.139c-1.77,2.469-12.79,13.874-14.017,15.658c6.298-12.255,2.287-21.96-6.792-29.566
					c-5.335,6.876-12.372,15.394-18.448,19.763c2.531-6.647,7.567-15.885,11.111-24.888c-22.474-13.293-60.251-18.595-71.034-19.573
					c4.462,21.454,19.778,33.487,26.935,52.71c5.939-4.839,12.072-10.115,18.057-12.499c-3.119,4.414-7.908,16.535-11.146,21.177
					C864.906,812.966,878.135,825.318,892.491,835.822z"/>
				<path style="fill:#AEB200;" d="M929.063,799.326l31.749,5.615l-31.002-1.223c5.927,32.921,18.878,62.863,28.628,64.081
					c0,0,27.142-21.626,32.482-89.082c-2.996,0.507-18.852,0.851-20.979,1.253c13.1-4.271,17.082-13.985,15.989-25.778
					c-8.63,1.127-19.624,2.223-27.017,1.047c6.479-2.938,16.559-5.955,25.412-9.854c-6.605-25.261-29.704-55.62-36.674-63.904
					c-11.934,18.38-9.526,37.706-17.975,56.397c7.628,0.743,15.697,1.314,21.624,3.833c-5.321,0.94-17.255,6.177-22.822,7.193
					C925.558,763.677,926.26,781.763,929.063,799.326z"/>
				<g>
					<g>
						<path style="fill:#EBC5BA;" d="M927.621,877.705c0.369-1.121,0.692-2.066,0.984-2.886c0.071-0.196,0.136-0.379,0.202-0.556
							c0.1-0.277,0.202-0.534,0.297-0.784c0.263-0.678,0.504-1.263,0.742-1.808c0.066-0.155,0.131-0.303,0.197-0.449
							c0.006-0.013,0.016-0.029,0.021-0.044c0.292-0.637,0.58-1.238,0.892-1.88c0.248-0.499,0.508-1.027,0.798-1.622
							c0.288-0.597,0.611-1.268,0.964-2.05c0.044-0.098,0.091-0.196,0.135-0.297c0.071-0.139,0.137-0.289,0.202-0.437
							c0.076-0.171,0.152-0.34,0.233-0.52c0.095-0.21,0.191-0.421,0.288-0.647c0.01-0.015,0.015-0.029,0.02-0.05
							c0.116-0.257,0.237-0.524,0.354-0.801c0.006-0.006,0.006-0.006,0.006-0.006c0.176-0.415,0.363-0.851,0.56-1.319
							c0.02-0.037,0.035-0.077,0.048-0.113c0.102-0.231,0.203-0.473,0.304-0.72c0.02-0.045,0.04-0.091,0.061-0.138
							c0.066-0.17,0.141-0.339,0.212-0.514c0.484-1.176,1.019-2.495,1.616-3.999c0.115-0.285,0.231-0.581,0.348-0.88
							c0.191-0.481,0.369-0.938,0.534-1.363c0.193-0.49,0.368-0.942,0.535-1.358c0.083-0.21,0.162-0.41,0.238-0.606
							c0.378-0.959,0.677-1.714,0.908-2.305c0,0,0-0.005,0.005-0.015c0.006,0,0.006-0.006,0.006-0.009
							c0.004-0.006,0.004-0.013,0.004-0.017c0-0.004,0.006-0.015,0.015-0.03l0.006-0.021c0.005-0.009,0.009-0.02,0.015-0.036
							c0-0.005,0.005-0.009,0.005-0.02c0.004-0.01,0.009-0.027,0.014-0.036c0.01-0.015,0.016-0.035,0.021-0.057
							c0.01-0.015,0.014-0.031,0.026-0.05c0,0,0.004-0.012,0.004-0.016c0.01-0.027,0.019-0.053,0.03-0.084
							c0.006-0.004,0.006-0.009,0.006-0.015c0.004-0.004,0.008-0.02,0.013-0.035l0.031-0.076c0.009-0.025,0.026-0.053,0.03-0.079
							c0.011-0.014,0.016-0.037,0.021-0.052c0.014-0.034,0.03-0.069,0.046-0.111c0.005-0.015,0.009-0.036,0.019-0.052
							c0.006-0.003,0.006-0.003,0.006-0.009c0.01-0.031,0.025-0.068,0.035-0.104c0.021-0.031,0.031-0.061,0.04-0.098
							c0.017-0.025,0.022-0.05,0.037-0.075c0.014-0.047,0.03-0.084,0.046-0.123c0.019-0.047,0.034-0.092,0.05-0.13
							c0.01-0.023,0.019-0.046,0.03-0.072c0,0,0,0,0-0.005c0.004-0.015,0.015-0.034,0.02-0.051c0.015-0.031,0.025-0.062,0.034-0.087
							c0-0.009,0.011-0.025,0.016-0.041c0.01-0.031,0.02-0.063,0.035-0.088c0.006-0.011,0.006-0.019,0.011-0.032
							c0.005,0,0.005-0.004,0.005-0.009c0,0,0-0.005,0.005-0.005c0-0.011,0.006-0.021,0.01-0.037c0.01-0.021,0.015-0.037,0.02-0.046
							v-0.007c0.004-0.003,0.004-0.003,0.004-0.013l0.005-0.007v-0.005c0.071-0.171,0.142-0.35,0.217-0.555
							c0.02-0.05,0.041-0.102,0.066-0.154c0.021-0.053,0.046-0.11,0.076-0.164c0.01-0.026,0.024-0.051,0.04-0.081
							c0.036-0.073,0.071-0.145,0.111-0.216c0.006-0.017,0.017-0.031,0.025-0.047c0.061-0.118,0.133-0.236,0.202-0.359
							c0.067-0.103,0.131-0.204,0.197-0.313c0.071-0.108,0.141-0.212,0.216-0.324c0.873-1.294,2.236-2.952,3.968-4.868
							c0.01-0.015,0.025-0.031,0.04-0.047h0.004c0.501-0.554,1.03-1.131,1.591-1.724c0.176-0.192,0.357-0.381,0.544-0.576
							c0.233-0.247,0.47-0.498,0.712-0.746c0.428-0.446,0.867-0.898,1.322-1.36c2.957-3.01,6.435-6.363,10.149-9.814
							c2.059-1.916,4.199-3.867,6.359-5.808c0.35-0.31,0.696-0.624,1.051-0.938c1.816-1.621,3.648-3.234,5.46-4.804
							c0.187-0.166,0.373-0.325,0.566-0.49c0.268-0.231,0.53-0.463,0.797-0.688c0.328-0.288,0.662-0.569,0.99-0.853
							c2.821-2.418,5.57-4.719,8.136-6.814c0.211-0.166,0.418-0.335,0.625-0.504c0.297-0.24,0.595-0.479,0.889-0.719
							c1.731-1.392,3.365-2.671,4.865-3.811c0.216-0.164,0.433-0.33,0.645-0.486c1.495-1.123,2.832-2.086,3.983-2.858
							c0.716-0.481,1.357-0.887,1.919-1.21c0.16-0.093,0.317-0.181,0.469-0.264c0.334-0.18,0.625-0.323,0.882-0.424
							c0.864-0.351,2.075-0.493,3.548-0.452c3.893,0.092,9.625,1.401,15.732,3.229c0.054,0.016,0.115,0.031,0.17,0.047
							c2.166,0.658,4.376,1.372,6.566,2.12c3.891,1.326,7.716,2.755,11.118,4.11c5.814,2.317,10.383,4.417,11.861,5.425
							c1.67,1.134,3.739,2.268,5.996,3.194c4.128,1.688,8.876,2.67,12.97,1.629c6.324-1.608,17.386-6.431,23.705-6.431
							c1.524,0,3.134,0.745,4.703,1.875c4.965,3.568,9.523,10.991,9.523,10.991l0.919,1.087l0.005,0.006l8.559,10.162l10.689,8.958
							l2.57,2.156l0.943,0.793l0.005,0.003l0.974,0.817l2.61,2.183l2.367,1.983l2.413,2.023l4.294,3.599l0.692,2.02l0.419,1.232
							l1.357,3.97l1.443,4.221l1.1,3.226l3.786,11.067H926.123C926.602,880.267,927.112,879.253,927.621,877.705z"/>
						<path style="fill:#B48F86;" d="M926.12,880.918h119.403c0.459-4.241,1.201-8.436,2.488-12.585
							c12.446-1.701,24.434,3.767,37.093,3.019c-24.666-16.313-58.922-22.875-85.802-35.553c8.272-0.161,14.868,1.17,22.585,3.422
							c-7.094-4.571-14.134-9.488-21.013-14.668c19.013,5.709,45.197,4.776,65.347,4.894c-25.267-3.061-50.633-13.607-75.189-19.66
							c2.066-4.843,5.831-9.698,9.677-14.565c-1.475-0.041-2.684,0.1-3.55,0.452c-7.902,3.216-53.735,43.425-56.895,51.467
							c-0.079,0.202-0.15,0.382-0.217,0.551v0.005c0,0.002-0.005,0.008-0.005,0.008c-0.005,0.007-0.005,0.011-0.009,0.015v0.004
							c-0.004,0.012-0.012,0.029-0.019,0.048c-0.004,0.011-0.009,0.023-0.012,0.037c-0.003,0-0.003,0.003-0.003,0.003
							c0,0.004,0,0.008-0.004,0.008c-0.004,0.013-0.008,0.025-0.014,0.032c-0.01,0.027-0.022,0.057-0.03,0.086
							c0,0.001-0.004,0.007-0.004,0.009c0-0.002,0-0.002,0-0.008c-0.004,0.014-0.013,0.03-0.016,0.041
							c-0.008,0.024-0.019,0.057-0.031,0.086c-0.009,0.019-0.016,0.034-0.021,0.051c0,0.004-0.004,0.004-0.004,0.004
							c-0.008,0.028-0.016,0.046-0.027,0.07c-0.016,0.041-0.032,0.086-0.052,0.129v0.006c-0.017,0.039-0.03,0.077-0.047,0.121
							c-0.012,0.023-0.019,0.051-0.033,0.075c-0.01,0.037-0.022,0.07-0.039,0.1c-0.011,0.034-0.027,0.069-0.039,0.102
							c0,0.003,0,0.003-0.006,0.009c-0.008,0.015-0.01,0.035-0.019,0.05c-0.014,0.041-0.027,0.083-0.042,0.119
							c-0.008,0.015-0.012,0.032-0.02,0.047c-0.008,0.029-0.02,0.053-0.031,0.077c-0.009,0.028-0.021,0.052-0.033,0.081
							c-0.004,0.012-0.008,0.029-0.012,0.037c-0.003,0.008-0.008,0.015-0.008,0.025c0-0.006,0-0.01,0-0.01
							c-0.011,0.028-0.019,0.058-0.032,0.081c0,0.004-0.005,0.012-0.005,0.016c-0.008,0.019-0.015,0.034-0.024,0.051
							c-0.004,0.017-0.011,0.037-0.019,0.054c-0.004,0.011-0.012,0.027-0.016,0.04c0,0.008-0.003,0.012-0.007,0.02
							c-0.004,0.01-0.008,0.025-0.013,0.032l-0.008,0.019c-0.006,0.018-0.011,0.029-0.016,0.037c0,0.005,0,0.008-0.004,0.012
							c0,0.003,0,0.009-0.004,0.009v0.003c-0.004,0.01-0.004,0.013-0.004,0.013c-0.454,1.153-1.157,2.939-2.216,5.638
							c-6.322,16.082-6.322,12.865-9.484,22.517C927.112,879.259,926.602,880.265,926.12,880.918z"/>
					</g>
					<g>
						<g>
							<path style="fill:#EBC5BA;" d="M1206.678,866.17c-1.94,2.083-3.649,3.676-3.649,3.676s-14.174,14.78-22.492,12.885
								c-2.584-0.59-4.653-0.389-6.554,0.173h-56.121c-1.858-0.755-3.333-1.653-4.637-2.901
								c-3.167-3.038-10.494-7.023-13.726-13.163c-3.234-6.14-2.2-6.163-0.261-12.41c1.938-6.25,4.999-8.383,12.173-11.636
								c7.174-3.255,8.252-1.207,12.323-4.397c1.466-1.147,3.213-1.768,5.04-2.139c3.244-0.664,6.741-0.55,9.376-1.266
								c4.114-1.123,38.351,3.334,43.5,2.192c5.149-1.144,7.262,0.882,11.399,0.796c4.136-0.089,8.382,4.996,11.527,7
								c3.145,2.002,8.085,9.516,7.522,13.295C1211.803,860.282,1209.066,863.6,1206.678,866.17z"/>
							<g>
								<path style="fill:#B48F86;" d="M1203.029,869.846c0,0-14.174,14.78-22.492,12.885c-2.584-0.59-4.653-0.389-6.554,0.173
									h-56.121c-1.858-0.755-3.333-1.653-4.637-2.901c-3.167-3.038-10.494-7.023-13.726-13.163c-3.234-6.14-2.2-6.163-0.261-12.41
									c1.938-6.25,4.999-8.383,12.173-11.636c7.174-3.255,8.252-1.207,12.323-4.397c1.466-1.147,3.213-1.768,5.04-2.139
									c6.768,0.564,13.474,3.583,20.158,3.653c-4.222,2.18-10.5,1.646-15.081,2.917c3.067,1.909,34.64,6.827,37.75,8.535
									c-1.026,1.017-33.229-0.272-33.638,1.209c-0.324,1.169,2.668,5.921,3.291,7.212c2.154,4.443,4.5,9.275,7.651,13.188
									c4.94-1.715,14.292-2.775,19.415-2.814c-2.144,2.048-5.662,3.607-8.048,5.15c5.142-1.693,10.745,0.396,15.975,0.272
									c5.637-0.138,10.857-1.455,15.284-4.586c5.354-3.789,7.831-6.396,14.522-4.958c0.208,0.043,0.416,0.089,0.624,0.136
									C1204.739,868.253,1203.029,869.846,1203.029,869.846z"/>
							</g>
						</g>
						<g>
							<path style="fill:#EBC5BA;" d="M1116.646,880.961c-0.744,0.8-1.435,1.491-1.899,1.943h-69.938
								c-0.348-0.477-0.664-0.97-0.936-1.489c-2.194-4.169-1.492-4.183-0.177-8.427c1.316-4.242,3.395-5.691,8.266-7.899
								c4.873-2.209,5.603-0.821,8.368-2.987c0.996-0.779,2.181-1.2,3.421-1.453c2.204-0.447,4.579-0.373,6.367-0.859
								c2.794-0.761,26.042,2.265,29.539,1.489c3.495-0.777,4.93,0.599,7.738,0.54c2.81-0.06,5.692,3.393,7.828,4.753
								c2.135,1.36,5.49,6.46,5.107,9.026C1120.127,876.962,1118.269,879.217,1116.646,880.961z"/>
							<g>
								<path style="fill:#B48F86;" d="M1069.992,871.727c-0.221,0.794,1.81,4.021,2.233,4.897c1.001,2.065,2.069,4.252,3.327,6.28
									h-30.742c-0.348-0.477-0.664-0.97-0.936-1.489c-2.194-4.169-1.492-4.183-0.177-8.427c1.316-4.242,3.395-5.691,8.266-7.899
									c4.873-2.209,5.603-0.821,8.368-2.987c0.996-0.779,2.181-1.2,3.421-1.453c4.596,0.385,9.149,2.434,13.689,2.482
									c-2.867,1.48-7.13,1.119-10.241,1.98c2.083,1.296,23.52,4.637,25.632,5.794
									C1092.135,871.597,1070.27,870.722,1069.992,871.727z"/>
								<path style="fill:#B48F86;" d="M1114.747,882.905h-6.538c2.509-1.801,4.311-2.832,8.015-2.036
									c0.141,0.028,0.283,0.06,0.422,0.092C1115.903,881.761,1115.211,882.452,1114.747,882.905z"/>
							</g>
						</g>
					</g>
					<g>
						<path style="fill:#EBC5BA;" d="M1000.078,887.056h-117.54c-2.578-7.008-1.479-7.692,0.458-16.029
							c2.1-9.05,5.416-12.137,13.191-16.85c7.772-4.709,8.942-1.747,13.353-6.366c1.588-1.664,3.481-2.557,5.46-3.098
							c3.517-0.956,7.304-0.793,10.159-1.831c4.459-1.624,41.559,4.827,47.138,3.172c5.581-1.656,7.868,1.28,12.351,1.155
							c4.481-0.129,9.083,7.234,12.492,10.138c3.406,2.897,8.757,13.773,8.149,19.245
							C1004.994,879.251,1002.485,883.5,1000.078,887.056z"/>
						<g>
							<path style="fill:#B48F86;" d="M924.959,868.334c-0.351,1.696,2.889,8.573,3.565,10.441c0.983,2.708,2.005,5.515,3.113,8.281
								h-49.099c-2.578-7.008-1.479-7.692,0.458-16.029c2.1-9.05,5.416-12.137,13.191-16.85c7.772-4.709,8.942-1.747,13.353-6.366
								c1.588-1.664,3.481-2.557,5.46-3.098c7.335,0.818,14.6,5.188,21.844,5.292c-4.576,3.154-11.379,2.384-16.342,4.219
								c3.322,2.768,37.534,9.888,40.904,12.358C960.297,868.057,925.401,866.19,924.959,868.334z"/>
						</g>
					</g>
				</g>
			</g>
			<g>
				<g>
					<path style="fill:#FF2222;" d="M646.526,794.801c0,0-14.996,1.715-31.248-9.583c0,0-8.009-8.004-7.919-9.179
						c0.09-1.176,1.129-1.836,2.683-1.696c1.555,0.143,1.271,0.246,2.541-0.018c1.272-0.263,1.577,0.405,2.695,0
						c1.119-0.405,2.587-0.427,3.337-0.063c0.748,0.365,1.938-0.16,2.583-0.258c0.647-0.098,9.885-0.337,14.687-0.633
						c4.802-0.296,7.019-0.974,10.641,0c3.622,0.973,4.893-0.268,6.729,0c1.836,0.268,3.968-0.268,5.303,0
						c1.334,0.268,23.675-0.266,23.675-0.266l6.468,8.443C688.701,781.547,670.724,791.532,646.526,794.801z"/>
				</g>
				<g>
					<path style="fill:#FFC53A;" d="M61.519,863.907c0,28.998,241.856,52.799,550.335,55.32c1.316,0.014,2.633,0.021,3.95,0.028
						c11.9,0.085,23.886,0.141,35.941,0.169c3.021,0.007,6.035,0.015,9.063,0.015c3.02,0.007,6.049,0.007,9.083,0.007
						c2.88,0,5.753,0,8.62-0.007c245.017-0.458,454.249-14.309,544.503-33.906c30.603-6.647,47.525-13.957,47.525-21.625
						c0-4.465-5.725-8.796-16.534-12.957c-29.202-5.323-55.215,2.761-86.416,5.535c-38.723,3.443-72.53-24.837-112.471-21.435
						c-35.899,3.056-72.023,19.47-106.189,28.392c-40.857,10.669-59.784,10.915-94.634-1.226c-1.739-0.598-3.507-1.232-5.331-1.901
						h-0.007c-1.387-0.507-2.802-1.035-4.246-1.577c-0.394-0.148-0.781-0.303-1.176-0.451h-0.007
						c-0.444-0.169-0.894-0.339-1.346-0.521c-0.471-0.176-0.943-0.359-1.422-0.543c-6.19-2.394-12.478-4.063-18.836-5.239
						c-1.965-0.367-3.936-0.676-5.915-0.951c-1.409-0.196-2.817-0.373-4.232-0.528c-2.591-0.289-5.197-0.513-7.809-0.696
						c-21.041-1.445-42.504,0.168-63.355-2.909c-1.52-0.225-3.041-0.472-4.556-0.753c-0.479-0.085-0.95-0.176-1.43-0.268
						c-0.901-0.176-1.809-0.367-2.71-0.564c-1.374-0.303-2.739-0.633-4.105-0.986c-11.648-3.028-22.59-6.725-33.393-10.161
						c-1.788-0.571-3.577-1.134-5.366-1.676c-1.07-0.338-2.134-0.662-3.197-0.979c-0.521-0.155-1.042-0.31-1.563-0.465
						c-4.451-1.316-8.908-2.541-13.407-3.598c-3.275-0.775-6.57-1.465-9.908-2.036h-0.007c-1.929-0.337-3.866-0.633-5.816-0.887
						h-0.007c-0.078-0.007-0.148-0.015-0.219-0.028c-0.493-0.063-0.993-0.12-1.486-0.176c-0.028-0.007-0.063-0.014-0.091-0.014
						c-1.049-0.12-2.098-0.232-3.162-0.332c-0.359-0.028-0.725-0.063-1.091-0.091c-1.091-0.091-2.19-0.169-3.303-0.226
						c-0.119-0.007-0.239-0.014-0.367-0.021c-7.407-0.387-15.09-0.106-23.202,1.098c-1.353,0.198-2.704,0.402-4.063,0.613
						c-1.719,0.253-3.451,0.521-5.183,0.788c-0.345,0.05-0.689,0.106-1.041,0.162c-0.986,0.148-1.972,0.303-2.958,0.458
						c-4.247,0.669-8.513,1.359-12.795,2.056c-6.408,1.043-12.857,2.105-19.329,3.176c-19.09,3.155-38.4,6.309-57.566,8.859
						c-1.105,0.148-2.218,0.295-3.324,0.437c-0.126,0.021-0.253,0.035-0.373,0.05c-1.627,0.211-3.246,0.415-4.866,0.612
						c-5.457,0.676-10.9,1.289-16.323,1.831c-11.203,1.119-22.111,0.789-32.85-0.19c-2.175-0.198-4.337-0.423-6.492-0.662
						c-2.344-0.268-4.675-0.556-7.006-0.859c-0.261-0.028-0.521-0.063-0.781-0.099c-0.62-0.084-1.233-0.161-1.852-0.246
						c-0.895-0.119-1.796-0.246-2.697-0.365c-1.973-0.276-3.936-0.55-5.901-0.832c-0.381-0.056-0.761-0.105-1.141-0.154
						c-1.056-0.155-2.105-0.303-3.155-0.451c-1.619-0.232-3.239-0.458-4.859-0.676c-12.351-1.697-24.66-3.113-37.145-2.937
						c-0.936,0.014-1.873,0.035-2.81,0.064c-0.535,0.021-1.063,0.042-1.599,0.063c-1.541,0.07-3.077,0.162-4.626,0.289
						c-0.852,0.07-1.704,0.148-2.556,0.232c-21.055,2.126-40.498,6.745-60.151,10.661c-0.853,0.17-1.704,0.338-2.556,0.5
						c-2.148,0.429-4.31,0.838-6.471,1.232c-1.536,0.289-3.078,0.564-4.62,0.824c-1.985,0.345-3.978,0.676-5.977,0.986h-0.008
						c-5.978,0.929-12.028,1.697-18.203,2.225c-0.373,0.036-0.754,0.071-1.127,0.099c-1.282,0.098-2.563,0.197-3.852,0.274
						c-1.619,0.106-3.246,0.19-4.887,0.254c-3.317,0.126-6.676,0.182-10.084,0.14c-41.539-0.479-74.664-12.478-115.337-4.789
						c-27.533,5.211-51.855,6.415-77.114,6.057c-4.225,2.521-6.592,5.112-6.972,7.739C61.541,863.406,61.519,863.661,61.519,863.907
						z"/>
				</g>
				<g>
					
						<linearGradient id="SVGID_00000172440138132116408160000014760531590909566372_" gradientUnits="userSpaceOnUse" x1="4137.0708" y1="856.3933" x2="4137.0708" y2="785.8362" gradientTransform="matrix(1 0 0 1 -3392.6113 0)">
						<stop  offset="0" style="stop-color:#CA6C21"/>
						<stop  offset="0.1389" style="stop-color:#D07630"/>
						<stop  offset="0.3413" style="stop-color:#D67F3E"/>
						<stop  offset="0.588" style="stop-color:#DA8446"/>
						<stop  offset="1" style="stop-color:#DB8649"/>
					</linearGradient>
					<path style="fill:url(#SVGID_00000172440138132116408160000014760531590909566372_);" d="M737.954,856.392
						c0,0-2.847,0.031-4.789-0.268l-0.677-2.368l18.476-67.921l5.468,4.719L737.954,856.392z"/>
					<path style="fill:#762200;" d="M729.188,855.086l18.74-67.097l4.647,1.218l-19.409,66.918c0,0-1.556,0.054-2.263-0.482
						C730.194,855.107,729.188,855.086,729.188,855.086z"/>
					
						<linearGradient id="SVGID_00000123418460527537153080000007981580254482128006_" gradientUnits="userSpaceOnUse" x1="4253.0825" y1="900.0995" x2="4211.9316" y2="750.5847" gradientTransform="matrix(1 0 0 1 -3392.6113 0)">
						<stop  offset="0" style="stop-color:#CA6C21"/>
						<stop  offset="0.1389" style="stop-color:#D07630"/>
						<stop  offset="0.3413" style="stop-color:#D67F3E"/>
						<stop  offset="0.588" style="stop-color:#DA8446"/>
						<stop  offset="1" style="stop-color:#DB8649"/>
					</linearGradient>
					<path style="fill:url(#SVGID_00000123418460527537153080000007981580254482128006_);" d="M817.26,740.174c0,0,1.626,0,2.439,0
						c0.815,0,1.717,0.473,2.125,2.157c0.405,1.683,33.704,124.348,34.156,126.156c0.451,1.805,0.812,4.427,0,5.195
						c-0.814,0.768-1.266,1.434-2.621,1.416c-1.356-0.015-4.548,0-4.548,0L815.558,742.33L817.26,740.174z"/>
					<path style="fill:#762200;" d="M816.844,742.33c0,0,34.049,125.026,34.481,126.683c0.432,1.657,0.399,3.487,0,4.219
						c-0.399,0.733-1.766,1.831-2.13,1.863c-0.365,0.034-1.165-0.739-1.165-0.739l-4.127-14.703l-29.945-110.647L816.844,742.33z"/>
					<g>
						
							<linearGradient id="SVGID_00000018210228946945945130000012537616277428143796_" gradientUnits="userSpaceOnUse" x1="3859.8723" y1="430.2127" x2="3926.1863" y2="430.2127" gradientTransform="matrix(0.9151 0.4032 -0.7284 1.6534 -2449.4802 -1535.2292)">
							<stop  offset="0" style="stop-color:#CA6C21"/>
							<stop  offset="0.1389" style="stop-color:#D07630"/>
							<stop  offset="0.3413" style="stop-color:#D67F3E"/>
							<stop  offset="0.588" style="stop-color:#DA8446"/>
							<stop  offset="1" style="stop-color:#DB8649"/>
						</linearGradient>
						<path style="fill:url(#SVGID_00000018210228946945945130000012537616277428143796_);" d="M818.815,761.799
							c0.081-0.23,0.146-0.419,0.199-0.56c0.054-0.219,5.622,2.994,5.713,2.645c0.47-1.817-4.567-7.13-4.289-8.988
							c0.017-0.116,0.148-1.416,0.248-2.193c-9.611-5.999-33.623-20.972-34.495-21.356c-1.093-0.481-11.497-1.509-13.236-2.275
							c-1.74-0.768-2.112-0.14-2.112-0.14l46.845,33.234C817.688,762.166,818.224,762.036,818.815,761.799z"/>
						<path style="fill:#762200;" d="M824.318,775.758c1.262-3.18-1.024-9.417-1.843-12.693
							c-0.537-0.214-50.44-33.441-51.224-33.963c-0.785-0.52-1.002,0.083-1.454,1.106c-0.451,1.024-1.898,4.311-2.317,5.263
							c-0.419,0.952-0.462,1.523,0.797,2.359C768.276,737.831,823.291,775.814,824.318,775.758z"/>
					</g>
					
						<linearGradient id="SVGID_00000172422156357549336390000011078372703279562118_" gradientUnits="userSpaceOnUse" x1="4175.1821" y1="746.1691" x2="4236.168" y2="746.1691" gradientTransform="matrix(1 0 0 1 -3392.6113 0)">
						<stop  offset="0" style="stop-color:#CA6C21"/>
						<stop  offset="0.1389" style="stop-color:#D07630"/>
						<stop  offset="0.3413" style="stop-color:#D67F3E"/>
						<stop  offset="0.588" style="stop-color:#DA8446"/>
						<stop  offset="1" style="stop-color:#DB8649"/>
					</linearGradient>
					<path style="fill:url(#SVGID_00000172422156357549336390000011078372703279562118_);" d="M787.912,825.016
						c0,0,54.736-149.722,55.214-151.112c0.478-1.389,0.615-2.915,0.115-3.803c-0.502-0.888-1.481-2.013-1.845-2.401
						c-0.365-0.387-0.637-0.4-1.55-0.364c-0.657,0.024-4.288,0.175-4.288,0.175l-52.988,153.7L787.912,825.016z"/>
					<path style="fill:#762200;" d="M784.202,822.533c0,0,53.544-147.912,53.98-149.033c0.437-1.124,0.531-2.434,0.157-3.12
						c-0.375-0.688-1.269-1.686-1.992-2.402c-0.722-0.718-1.221-0.594-1.533,0.28l-54.531,151.1L784.202,822.533z"/>
					
						<linearGradient id="SVGID_00000078727683844328724200000013037149110189988490_" gradientUnits="userSpaceOnUse" x1="4131.9146" y1="840.0074" x2="4255.9199" y2="840.0074" gradientTransform="matrix(1 0 0 1 -3392.6113 0)">
						<stop  offset="0" style="stop-color:#CA6C21"/>
						<stop  offset="0.1389" style="stop-color:#D07630"/>
						<stop  offset="0.3413" style="stop-color:#D67F3E"/>
						<stop  offset="0.588" style="stop-color:#DA8446"/>
						<stop  offset="1" style="stop-color:#DB8649"/>
					</linearGradient>
					<path style="fill:url(#SVGID_00000078727683844328724200000013037149110189988490_);" d="M748.006,790.866l113.469,93.819
						c1.117,0.898,1.919,1.608,1.826,2.935c-0.092,1.327-0.154,1.984-0.494,2.952c0,0-0.524-0.135-1.544,0
						c-1.017,0.136-1.666,0.166-2.499,0.227c-0.833,0.061-2.354-0.236-2.354-0.236l-0.022-2.326l-117.085-99.03L748.006,790.866z"/>
					<path style="fill:#762200;" d="M734.922,791.791L847.61,886.48c0,0,7.399,3.969,8.8,4.084c1.399,0.116,1.724-1.055,1.824-2.016
						c0.101-0.962,0.101-2.099-0.707-2.806c-0.809-0.707-113.538-94.876-113.538-94.876L734.922,791.791z"/>
					<path style="fill:#762200;" d="M724.755,890.822c0,0-2.126-1.063-7.439-2.764c-5.316-1.7-8.929-5.951-11.692-7.439
						c-2.764-1.488-103.066-98.199-103.066-98.199s-1.583-1.629-2.172-2.17c-0.588-0.543-0.674-1.54-0.632-2.307
						c0.045-0.859,0.271-2.713,0.317-3.528c0.045-0.815,0.542-1.493,1.401-0.678C602.331,774.55,724.755,890.822,724.755,890.822z"
						/>
					
						<linearGradient id="SVGID_00000142868159525711744770000008592866095643969168_" gradientUnits="userSpaceOnUse" x1="3993.3301" y1="831.9633" x2="4122.8267" y2="831.9633" gradientTransform="matrix(1 0 0 1 -3392.6113 0)">
						<stop  offset="0" style="stop-color:#CA6C21"/>
						<stop  offset="0.1389" style="stop-color:#D07630"/>
						<stop  offset="0.3413" style="stop-color:#D67F3E"/>
						<stop  offset="0.588" style="stop-color:#DA8446"/>
						<stop  offset="1" style="stop-color:#DB8649"/>
					</linearGradient>
					<path style="fill:url(#SVGID_00000142868159525711744770000008592866095643969168_);" d="M600.719,773.375
						c0,0,2.908-0.251,3.836-0.27c1.073-0.022,1.577,0.461,1.994,0.879c0.536,0.535,0.9,0.877,0.9,0.877l122.766,115.96
						c-2.4-0.464-5.46,0-5.46,0L601.15,775.567L600.719,773.375z"/>
					
						<linearGradient id="SVGID_00000141424332242256560860000017730339090465112481_" gradientUnits="userSpaceOnUse" x1="4012.1697" y1="856.1248" x2="4012.1697" y2="758.0913" gradientTransform="matrix(1 0 0 1 -3392.6113 0)">
						<stop  offset="0" style="stop-color:#CA6C21"/>
						<stop  offset="0.1389" style="stop-color:#D07630"/>
						<stop  offset="0.3413" style="stop-color:#D67F3E"/>
						<stop  offset="0.588" style="stop-color:#DA8446"/>
						<stop  offset="1" style="stop-color:#DB8649"/>
					</linearGradient>
					<path style="fill:url(#SVGID_00000141424332242256560860000017730339090465112481_);" d="M605.625,856.125
						c0,0,3.916-0.323,5.028,0l22.688-92.921c0,0,0.464-1.73-0.228-2.916c-0.368-0.632-0.841-1.285-1.113-1.533
						c-0.271-0.246-0.692-0.663-1.284-0.663c-0.594,0-4.327,0-4.327,0L605.625,856.125z"/>
					<path style="fill:#762200;" d="M605.625,856.125c0,0,20.388-83.08,21.399-87.142c0.343-1.382,0.825-3.607,1.352-6.006
						c0,0,0.478-2.281-0.174-3.128c-0.653-0.847-1.467-1.956-1.988-1.728c-0.52,0.228-0.75,0.684-1.075,2.183
						c-0.326,1.499-23.124,95.047-23.124,95.047s0.701,0,1.843,0.368C604.911,856.06,605.625,856.125,605.625,856.125z"/>
					<path style="fill:#762200;" d="M848.812,866.35c0-1.481-0.705-2.68-1.577-2.68l-145.867,5.326v5.361l145.867-5.326
						C848.106,869.03,848.812,867.83,848.812,866.35z"/>
					<g>
						
							<linearGradient id="SVGID_00000119833016888514692760000011640063149723914370_" gradientUnits="userSpaceOnUse" x1="3733.5186" y1="468.2072" x2="3793.2925" y2="468.2072" gradientTransform="matrix(0.9151 0.4032 -0.7284 1.6534 -2449.4802 -1535.2292)">
							<stop  offset="0" style="stop-color:#CA6C21"/>
							<stop  offset="0.1389" style="stop-color:#D07630"/>
							<stop  offset="0.3413" style="stop-color:#D67F3E"/>
							<stop  offset="0.588" style="stop-color:#DA8446"/>
							<stop  offset="1" style="stop-color:#DB8649"/>
						</linearGradient>
						<path style="fill:url(#SVGID_00000119833016888514692760000011640063149723914370_);" d="M675.512,773.673
							c0.081-0.23,0.146-0.418,0.2-0.56c0.053-0.219,0.123-0.49,0.212-0.839c0.47-1.817,0.934-3.646,1.212-5.503
							c0.017-0.116,0.148-1.415,0.248-2.193c-9.611-5.998-33.622-20.972-34.495-21.355c-1.093-0.481-11.497-1.51-13.236-2.276
							c-1.74-0.767-2.111-0.139-2.111-0.139l46.844,33.234C674.385,774.04,674.921,773.909,675.512,773.673z"/>
						<path style="fill:#762200;" d="M672.853,780.753c0.149-0.376,0.302-0.751,0.449-1.129c0.701-1.794,1.406-3.59,2.026-5.415
							c0.172-0.506,0.296-0.856,0.384-1.097c0.05-0.206,0.116-0.464,0.198-0.784c-0.537-0.213-1.293-0.575-2.355-1.223
							c-2.59-1.577-44.823-29.607-45.606-30.13c-0.785-0.519-1.001,0.084-1.453,1.107c-0.451,1.023-1.898,4.311-2.318,5.263
							c-0.419,0.952-0.463,1.523,0.797,2.358l45.694,30.254C670.668,779.958,671.825,780.81,672.853,780.753z"/>
					</g>
					<g>
						<path style="fill:#762200;" d="M836.347,675.449c0-1.481-0.706-2.68-1.576-2.68l-135.575,0.584l-0.11,5.8l135.685-1.023
							C835.641,678.13,836.347,676.929,836.347,675.449z"/>
						
							<linearGradient id="SVGID_00000020358465025292267630000011991498729602993041_" gradientUnits="userSpaceOnUse" x1="4040.1638" y1="749.5038" x2="4095.698" y2="749.5038" gradientTransform="matrix(1 0 0 1 -3392.6113 0)">
							<stop  offset="0" style="stop-color:#CA6C21"/>
							<stop  offset="0.1389" style="stop-color:#D07630"/>
							<stop  offset="0.3413" style="stop-color:#D67F3E"/>
							<stop  offset="0.588" style="stop-color:#DA8446"/>
							<stop  offset="1" style="stop-color:#DB8649"/>
						</linearGradient>
						<path style="fill:url(#SVGID_00000020358465025292267630000011991498729602993041_);" d="M695.491,668.227
							c0,0,3.749,0,4.461,0c0.71,0,0.968,0.046,1.422,0.628c0.453,0.581,1.034,1.387,1.422,2.099
							c0.387,0.713,0.452,1.942-0.194,4.105c-0.648,2.165-48.621,153.149-48.621,153.149c-0.268,0.781-0.727,1.94-0.88,2.201
							c-0.154,0.262-0.174,0.371-2.031,0.371c-1.858,0-3.518-0.091-3.518-0.091l0.11-1.983L695.491,668.227z"/>
						<g>
							<path style="fill:#FFFFFF;" d="M829.198,677.87l-1.179,5.871c-2.546,9.564-7.869,32.002-15.738,52.973
								c-4.496,11.981-9.826,23.469-15.927,31.821c-4.119,5.625-8.139,9.868-12.013,13.068c-9.096,7.551-17.359,9.377-24.083,10.073
								c-1.261,0.131-2.472,0.221-3.62,0.303c-1.785,0.13-6.551,0.302-13.143,0.507h-0.008c-4.881,0.139-10.759,0.303-17.196,0.467
								c-5.217,0.14-10.793,0.279-16.476,0.41c-5.699,0.139-11.513,0.278-17.188,0.409c-5.69,0.131-11.242,0.254-16.418,0.377
								c-16.034,0.361-28.365,0.622-29.586,0.646c-0.065,0-0.098,0-0.098,0c0.041-0.007,0.083-0.015,0.123-0.032
								c21.994-5.216,33.001-23.125,39.985-40.28c2.505-6.158,4.504-12.218,6.297-17.565c6.814-20.267,13.281-50.491,14.674-56.78
								c1.4-6.281-1.393-6.814-1.393-6.814s4.914-0.099,12.669-0.254c3.774-0.075,8.221-0.156,13.102-0.254
								c6.347-0.132,13.428-0.271,20.717-0.418c4.324-0.083,8.73-0.172,13.102-0.262c7.173-0.139,14.24-0.286,20.717-0.418
								c4.749-0.099,9.187-0.196,13.118-0.278c9.506-0.197,16.025-0.344,16.804-0.386c1.523-0.081,2.751-0.122,3.906-0.099
								c1.359,0.033,2.62,0.164,4.135,0.451C827.274,671.934,829.198,677.87,829.198,677.87z"/>
							<path style="fill:#FF2222;" d="M731.982,672.818c-2.514,51.293-23.469,96.987-39.356,120.955
								c-5.69,0.131-11.242,0.254-16.418,0.377c6.125-7.721,15.199-21.913,23.707-41.958c8.246-19.4,17.311-47.364,18.965-79.12
								C722.654,672.997,727.101,672.916,731.982,672.818z"/>
							<path style="fill:#FF2222;" d="M765.801,672.138c-2.604,51.327-23.641,96.996-39.51,120.816
								c-5.217,0.14-10.793,0.279-16.476,0.41c6.126-7.656,15.322-21.962,23.952-42.262c8.205-19.309,17.221-47.118,18.933-78.702
								C757.023,672.318,761.429,672.229,765.801,672.138z"/>
							<path style="fill:#FF2222;" d="M799.637,671.443c-2.694,51.031-23.559,96.422-39.38,120.234
								c-1.261,0.131-2.472,0.221-3.62,0.303c-1.785,0.13-6.551,0.302-13.143,0.507c6.117-7.607,15.404-21.986,24.116-42.483
								c8.173-19.218,17.147-46.863,18.908-78.284C791.267,671.622,795.706,671.524,799.637,671.443z"/>
							<path style="fill:#FF2222;" d="M829.198,677.87l-1.179,5.871c-3.996,15.035-14.87,61.842-31.666,84.794
								c-4.119,5.625-8.139,9.868-12.013,13.068c5.225-8.032,11.301-18.997,17.115-32.689c8.149-19.16,17.091-46.675,18.892-77.956
								c1.359,0.033,2.62,0.164,4.135,0.451C827.274,671.934,829.198,677.87,829.198,677.87z"/>
							<path style="opacity:0.5;fill:#6C8C8C;" d="M812.28,736.714c-4.496,11.981-9.826,23.469-15.927,31.821
								c-4.119,5.625-8.139,9.868-12.013,13.068c-9.096,7.551-17.359,9.377-24.083,10.073c-1.261,0.131-2.472,0.221-3.62,0.303
								c-1.785,0.13-6.551,0.302-13.143,0.507h-0.008c-4.881,0.139-10.759,0.303-17.196,0.467c-5.217,0.14-10.793,0.279-16.476,0.41
								c-5.699,0.139-11.513,0.278-17.188,0.409c-5.69,0.131-11.242,0.254-16.418,0.377c-16.034,0.361-28.365,0.622-29.586,0.646
								l0.025-0.032c21.994-5.216,33.001-23.125,39.985-40.28c4.216,1.801,8.943,3.112,11.169,3.693
								c16.984,4.405,35.187,4.373,52.498,2.128c18.809-2.423,38.552-8.974,54.675-19.031
								C807.26,739.851,809.75,738.336,812.28,736.714z"/>
						</g>
						<path style="fill:#762200;" d="M650.204,823.933c0,0,47.19-148.737,47.465-149.608c0.274-0.873,0.596-1.883,0.229-2.663
							c-0.367-0.779-1.551-2.56-1.927-3.075c-0.506-0.688-1.224-0.54-1.883,1.79l-47.428,150.861c0,0-0.235,0.499-0.763,2.108
							c-0.527,1.612-0.819,3.105-0.468,4.043c0.353,0.938,1.231,2.343,1.523,2.87c0.294,0.528,1.113,0.849,1.612-0.762
							C649.061,827.887,650.204,823.933,650.204,823.933z"/>
						<g>
							
								<linearGradient id="SVGID_00000045596765303559919630000004615297504675827887_" gradientUnits="userSpaceOnUse" x1="4060.1372" y1="811.8938" x2="4097.0215" y2="811.8938" gradientTransform="matrix(1 0 0 1 -3392.6113 0)">
								<stop  offset="0" style="stop-color:#CA6C21"/>
								<stop  offset="0.1389" style="stop-color:#D07630"/>
								<stop  offset="0.3413" style="stop-color:#D67F3E"/>
								<stop  offset="0.588" style="stop-color:#DA8446"/>
								<stop  offset="1" style="stop-color:#DB8649"/>
							</linearGradient>
							<path style="fill:url(#SVGID_00000045596765303559919630000004615297504675827887_);" d="M667.526,742.837
								c0,0,3.565-0.016,4.415-0.016c0.849,0,1.222,0.643,1.586,2.165c0.364,1.522,30.572,130.542,30.572,130.542
								c0.178,0.983,0.361,1.924,0.299,2.589c-0.061,0.667-1,1.819-1.485,2.304c-0.484,0.485-0.695,0.546-1.819,0.546
								c-1.12,0-5.086-0.321-5.086-0.321L667.526,742.837z"/>
							<path style="fill:#762200;" d="M666.182,751.829c0,0,27.902,122.083,28.437,124.328c0.534,2.244,0.854,4.489,1.389,4.489
								c0.534,0,3.314-2.137,3.314-2.992c0-0.857-29.997-130.89-30.19-131.789c-0.192-0.9-1.114-3.15-1.714-3.023
								c-0.601,0.13-1.865,1.78-2.079,2.273c-0.214,0.493-0.3,1.372,0,2.85C665.638,749.444,666.182,751.829,666.182,751.829z"/>
						</g>
					</g>
				</g>
				<path style="fill:#FFC53A;" d="M668.725,881.12c5.787-1.62,8.197-4.216,13.305-6.984c5.601-3.035,10.172-2.478,15.358-3.482
					c11.799-2.284,18.956,0.544,30.253,5.941c9.624,4.596,22.247,11.973,32.161,14.352c6.38,1.532,13.321-0.615,19.47,0
					c7.333,0.735,11.018,1.364,18.198-0.454c12.38-3.136,21.061,2.468,33.368-5.299c4.938-3.116,9.823-7.614,15.582-7.98
					c5.897-0.374,11.787,2.49,18.197,1.834c15.312-1.566,25.372,8.447,39.123,15.357l-262.857,2.456
					C650.196,889.439,656.779,884.463,668.725,881.12z"/>
				<g>
					<path style="fill:#762200;" d="M399.287,887.546c0,0,2.126-1.063,7.439-2.763c5.316-1.701,8.929-5.951,11.693-7.44
						c2.763-1.489,103.065-98.2,103.065-98.2s1.583-1.628,2.171-2.17c0.588-0.542,0.674-1.539,0.632-2.306
						c-0.044-0.858-0.27-2.712-0.315-3.527c-0.047-0.815-0.544-1.493-1.401-0.678C521.711,771.275,399.287,887.546,399.287,887.546z
						"/>
					
						<linearGradient id="SVGID_00000093897752093063709650000014572605854013473463_" gradientUnits="userSpaceOnUse" x1="-2003.3228" y1="828.6876" x2="-1873.8265" y2="828.6876" gradientTransform="matrix(-1 0 0 1 -1480 0)">
						<stop  offset="0" style="stop-color:#CA6C21"/>
						<stop  offset="0.1389" style="stop-color:#D07630"/>
						<stop  offset="0.3413" style="stop-color:#D67F3E"/>
						<stop  offset="0.588" style="stop-color:#DA8446"/>
						<stop  offset="1" style="stop-color:#DB8649"/>
					</linearGradient>
					<path style="fill:url(#SVGID_00000093897752093063709650000014572605854013473463_);" d="M523.323,770.1
						c0,0-2.907-0.252-3.836-0.27c-1.072-0.021-1.576,0.462-1.994,0.879c-0.535,0.536-0.9,0.878-0.9,0.878L393.827,887.546
						c2.401-0.464,5.46,0,5.46,0L522.892,772.29L523.323,770.1z"/>
					
						<linearGradient id="SVGID_00000047740320479636544020000012612550065891830939_" gradientUnits="userSpaceOnUse" x1="-1984.4841" y1="852.8495" x2="-1984.4841" y2="754.8159" gradientTransform="matrix(-1 0 0 1 -1480 0)">
						<stop  offset="0" style="stop-color:#CA6C21"/>
						<stop  offset="0.1389" style="stop-color:#D07630"/>
						<stop  offset="0.3413" style="stop-color:#D67F3E"/>
						<stop  offset="0.588" style="stop-color:#DA8446"/>
						<stop  offset="1" style="stop-color:#DB8649"/>
					</linearGradient>
					<path style="fill:url(#SVGID_00000047740320479636544020000012612550065891830939_);" d="M518.418,852.849
						c0,0-3.916-0.323-5.028,0l-22.687-92.922c0,0-0.464-1.729,0.228-2.916c0.368-0.631,0.841-1.284,1.113-1.533
						c0.272-0.246,0.693-0.663,1.284-0.663c0.594,0,4.327,0,4.327,0L518.418,852.849z"/>
					<path style="fill:#762200;" d="M518.418,852.849c0,0-20.387-83.081-21.399-87.143c-0.343-1.381-0.825-3.606-1.352-6.005
						c0,0-0.479-2.281,0.174-3.128c0.653-0.847,1.467-1.956,1.988-1.728c0.521,0.229,0.75,0.685,1.076,2.183
						c0.325,1.499,23.124,95.047,23.124,95.047s-0.7,0-1.843,0.368C519.132,852.784,518.418,852.849,518.418,852.849z"/>
					<g>
						
							<linearGradient id="SVGID_00000003074394462694807640000001754250295240923795_" gradientUnits="userSpaceOnUse" x1="-1766.494" y1="1807.9603" x2="-1706.7201" y2="1807.9603" gradientTransform="matrix(-0.9151 0.4032 0.7284 1.6534 -2423.1316 -1535.2292)">
							<stop  offset="0" style="stop-color:#CA6C21"/>
							<stop  offset="0.1389" style="stop-color:#D07630"/>
							<stop  offset="0.3413" style="stop-color:#D67F3E"/>
							<stop  offset="0.588" style="stop-color:#DA8446"/>
							<stop  offset="1" style="stop-color:#DB8649"/>
						</linearGradient>
						<path style="fill:url(#SVGID_00000003074394462694807640000001754250295240923795_);" d="M460.814,771.216
							c-0.081-0.229-0.147-0.418-0.2-0.56c-0.054-0.219-0.122-0.49-0.213-0.841c-0.47-1.817-0.934-3.644-1.211-5.502
							c-0.017-0.116-0.148-1.416-0.248-2.193c9.612-5.999,33.623-20.972,34.495-21.356c1.093-0.481,11.497-1.509,13.236-2.275
							c1.74-0.768,2.112-0.14,2.112-0.14l-46.844,33.234C461.94,771.583,461.404,771.453,460.814,771.216z"/>
						<path style="fill:#762200;" d="M463.473,778.297c-0.15-0.377-0.302-0.751-0.449-1.129c-0.701-1.794-1.407-3.59-2.027-5.416
							c-0.172-0.506-0.295-0.855-0.383-1.096c-0.051-0.206-0.116-0.464-0.198-0.784c0.537-0.213,1.294-0.576,2.356-1.222
							c2.589-1.578,44.822-29.608,45.605-30.13c0.785-0.52,1.002,0.083,1.454,1.106c0.451,1.023,1.899,4.312,2.317,5.263
							c0.421,0.952,0.464,1.523-0.796,2.359l-45.695,30.253C465.657,777.501,464.499,778.353,463.473,778.297z"/>
					</g>
					<g>
						<path style="fill:#FF2222;" d="M419.185,673.473c0,0,0.25,17.009,1.77,23.271c0,0-9.033-9.677-9.286-9.93
							c-0.253-0.254-0.712-10.954-0.85-11.184C410.682,675.4,419.185,673.473,419.185,673.473z"/>
						<path style="fill:#762200;" d="M287.695,672.174c0-1.481,0.707-2.68,1.577-2.68l135.574,0.584l0.11,5.8l-135.684-1.023
							C288.402,674.854,287.695,673.654,287.695,672.174z"/>
						
							<linearGradient id="SVGID_00000158717281740538594440000017311439160902950837_" gradientUnits="userSpaceOnUse" x1="-1859.5831" y1="853.1179" x2="-1859.5831" y2="782.5606" gradientTransform="matrix(-1 0 0 1 -1480 0)">
							<stop  offset="0" style="stop-color:#CA6C21"/>
							<stop  offset="0.1389" style="stop-color:#D07630"/>
							<stop  offset="0.3413" style="stop-color:#D67F3E"/>
							<stop  offset="0.588" style="stop-color:#DA8446"/>
							<stop  offset="1" style="stop-color:#DB8649"/>
						</linearGradient>
						<path style="fill:url(#SVGID_00000158717281740538594440000017311439160902950837_);" d="M386.089,853.117
							c0,0,2.846,0.031,4.788-0.268l0.677-2.368l-18.475-67.92l-5.468,4.718L386.089,853.117z"/>
						<path style="fill:#762200;" d="M394.855,851.811l-18.74-67.097l-4.646,1.219l19.408,66.917c0,0,1.557,0.054,2.263-0.482
							C393.848,851.831,394.855,851.811,394.855,851.811z"/>
						
							<linearGradient id="SVGID_00000088843017813201019150000003684513608342102712_" gradientUnits="userSpaceOnUse" x1="-1743.5715" y1="896.824" x2="-1784.7223" y2="747.3099" gradientTransform="matrix(-1 0 0 1 -1480 0)">
							<stop  offset="0" style="stop-color:#CA6C21"/>
							<stop  offset="0.1389" style="stop-color:#D07630"/>
							<stop  offset="0.3413" style="stop-color:#D67F3E"/>
							<stop  offset="0.588" style="stop-color:#DA8446"/>
							<stop  offset="1" style="stop-color:#DB8649"/>
						</linearGradient>
						<path style="fill:url(#SVGID_00000088843017813201019150000003684513608342102712_);" d="M306.782,736.899
							c0,0-1.625,0-2.438,0c-0.815,0-1.717,0.472-2.125,2.156c-0.406,1.683-33.704,124.347-34.156,126.155
							c-0.451,1.806-0.812,4.427,0,5.195c0.813,0.769,1.265,1.434,2.621,1.417c1.355-0.016,4.548,0,4.548,0l33.254-132.767
							L306.782,736.899z"/>
						<path style="fill:#762200;" d="M307.199,739.055c0,0-34.049,125.026-34.481,126.683c-0.433,1.657-0.399,3.487,0,4.219
							c0.399,0.733,1.765,1.831,2.13,1.863c0.366,0.034,1.165-0.739,1.165-0.739l4.127-14.703l29.945-110.647L307.199,739.055z"/>
						<g>
							
								<linearGradient id="SVGID_00000141419578006597155800000001273086994796601233_" gradientUnits="userSpaceOnUse" x1="-1629.2286" y1="1766.8104" x2="-1562.9154" y2="1766.8104" gradientTransform="matrix(-0.9151 0.4032 0.7284 1.6534 -2423.1316 -1535.2292)">
								<stop  offset="0" style="stop-color:#CA6C21"/>
								<stop  offset="0.1389" style="stop-color:#D07630"/>
								<stop  offset="0.3413" style="stop-color:#D67F3E"/>
								<stop  offset="0.588" style="stop-color:#DA8446"/>
								<stop  offset="1" style="stop-color:#DB8649"/>
							</linearGradient>
							<path style="fill:url(#SVGID_00000141419578006597155800000001273086994796601233_);" d="M305.228,758.523
								c-0.08-0.23-0.146-0.418-0.2-0.56c-0.053-0.219-5.622,2.994-5.712,2.645c-0.47-1.817,4.566-7.13,4.288-8.989
								c-0.017-0.115-0.148-1.416-0.247-2.193c9.611-5.999,33.622-20.972,34.495-21.356c1.093-0.481,11.496-1.51,13.236-2.276
								c1.739-0.767,2.111-0.139,2.111-0.139l-46.844,33.235C306.355,758.891,305.819,758.76,305.228,758.523z"/>
							<path style="fill:#762200;" d="M299.725,772.483c-1.262-3.18,1.024-9.417,1.842-12.693
								c0.538-0.213,50.441-33.44,51.225-33.962c0.785-0.52,1.002,0.083,1.453,1.106c0.451,1.024,1.899,4.311,2.318,5.263
								c0.419,0.952,0.462,1.523-0.797,2.358C355.767,734.554,300.752,772.539,299.725,772.483z"/>
						</g>
						
							<linearGradient id="SVGID_00000148659469064439853840000007552500224817826441_" gradientUnits="userSpaceOnUse" x1="-1821.4713" y1="742.8932" x2="-1760.4861" y2="742.8932" gradientTransform="matrix(-1 0 0 1 -1480 0)">
							<stop  offset="0" style="stop-color:#CA6C21"/>
							<stop  offset="0.1389" style="stop-color:#D07630"/>
							<stop  offset="0.3413" style="stop-color:#D67F3E"/>
							<stop  offset="0.588" style="stop-color:#DA8446"/>
							<stop  offset="1" style="stop-color:#DB8649"/>
						</linearGradient>
						<path style="fill:url(#SVGID_00000148659469064439853840000007552500224817826441_);" d="M336.13,821.74
							c0,0-54.735-149.722-55.214-151.111c-0.478-1.389-0.614-2.915-0.114-3.803c0.501-0.888,1.481-2.013,1.844-2.401
							c0.365-0.387,0.637-0.4,1.55-0.364c0.657,0.024,4.289,0.175,4.289,0.175l52.987,153.699L336.13,821.74z"/>
						<path style="fill:#762200;" d="M339.84,819.257c0,0-53.543-147.912-53.98-149.034c-0.436-1.123-0.53-2.434-0.156-3.12
							c0.375-0.687,1.268-1.686,1.992-2.402c0.722-0.718,1.222-0.594,1.534,0.28l54.53,151.1L339.84,819.257z"/>
						
							<linearGradient id="SVGID_00000010992765564734543280000016171753590087549854_" gradientUnits="userSpaceOnUse" x1="-1864.7395" y1="836.732" x2="-1740.734" y2="836.732" gradientTransform="matrix(-1 0 0 1 -1480 0)">
							<stop  offset="0" style="stop-color:#CA6C21"/>
							<stop  offset="0.1389" style="stop-color:#D07630"/>
							<stop  offset="0.3413" style="stop-color:#D67F3E"/>
							<stop  offset="0.588" style="stop-color:#DA8446"/>
							<stop  offset="1" style="stop-color:#DB8649"/>
						</linearGradient>
						<path style="fill:url(#SVGID_00000010992765564734543280000016171753590087549854_);" d="M376.036,787.591l-113.469,93.818
							c-1.116,0.898-1.919,1.608-1.825,2.934c0.092,1.328,0.154,1.985,0.493,2.953c0,0,0.524-0.135,1.544,0
							c1.018,0.135,1.666,0.165,2.5,0.228c0.833,0.061,2.354-0.235,2.354-0.235l0.021-2.327l117.085-99.029L376.036,787.591z"/>
						<path style="fill:#762200;" d="M389.12,788.515l-112.688,94.688c0,0-7.399,3.97-8.799,4.085
							c-1.4,0.116-1.726-1.056-1.825-2.016c-0.101-0.961-0.101-2.098,0.707-2.805c0.809-0.707,113.537-94.876,113.537-94.876
							L389.12,788.515z"/>
						
							<linearGradient id="SVGID_00000013874379335298152660000007197409304313778097_" gradientUnits="userSpaceOnUse" x1="-1956.4897" y1="746.2283" x2="-1900.9557" y2="746.2283" gradientTransform="matrix(-1 0 0 1 -1480 0)">
							<stop  offset="0" style="stop-color:#CA6C21"/>
							<stop  offset="0.1389" style="stop-color:#D07630"/>
							<stop  offset="0.3413" style="stop-color:#D67F3E"/>
							<stop  offset="0.588" style="stop-color:#DA8446"/>
							<stop  offset="1" style="stop-color:#DB8649"/>
						</linearGradient>
						<path style="fill:url(#SVGID_00000013874379335298152660000007197409304313778097_);" d="M428.552,664.952c0,0-3.75,0-4.461,0
							c-0.711,0-0.968,0.046-1.422,0.627c-0.453,0.582-1.034,1.388-1.421,2.1c-0.387,0.713-0.452,1.941,0.193,4.105
							c0.648,2.165,48.62,153.148,48.62,153.148c0.268,0.783,0.728,1.94,0.881,2.202c0.153,0.262,0.174,0.371,2.03,0.371
							c1.859,0,3.518-0.091,3.518-0.091l-0.109-1.983L428.552,664.952z"/>
						<g>
							<path style="fill:#FFFFFF;" d="M294.845,674.595l1.179,5.871c2.547,9.564,7.869,32.001,15.739,52.973
								c4.496,11.98,9.826,23.468,15.927,31.821c4.119,5.626,8.139,9.867,12.013,13.07c9.097,7.55,17.359,9.375,24.083,10.072
								c1.26,0.13,2.473,0.221,3.62,0.302c1.785,0.131,6.552,0.303,13.142,0.508h0.009c4.88,0.138,10.759,0.303,17.196,0.466
								c5.216,0.139,10.792,0.279,16.476,0.41c5.7,0.139,11.513,0.278,17.188,0.409c5.69,0.131,11.243,0.254,16.418,0.377
								c16.034,0.361,28.365,0.622,29.585,0.647c0.065,0,0.098,0,0.098,0c-0.041-0.009-0.082-0.017-0.123-0.033
								c-21.994-5.217-33.001-23.125-39.985-40.281c-2.505-6.158-4.505-12.218-6.297-17.564
								c-6.813-20.267-13.281-50.492-14.674-56.78c-1.4-6.281,1.392-6.814,1.392-6.814s-4.913-0.098-12.668-0.254
								c-3.775-0.074-8.222-0.155-13.102-0.253c-6.347-0.132-13.429-0.27-20.717-0.418c-4.323-0.083-8.73-0.172-13.102-0.262
								c-7.173-0.139-14.24-0.286-20.717-0.418c-4.749-0.098-9.187-0.196-13.119-0.278c-9.506-0.197-16.025-0.344-16.802-0.386
								c-1.524-0.082-2.752-0.122-3.906-0.099c-1.359,0.033-2.621,0.164-4.135,0.451
								C296.769,668.658,294.845,674.595,294.845,674.595z"/>
							<path style="fill:#2241CD;" d="M392.061,669.543c2.514,51.293,23.469,96.987,39.355,120.955
								c5.69,0.131,11.243,0.254,16.418,0.377c-6.126-7.721-15.199-21.913-23.707-41.96c-8.246-19.398-17.31-47.363-18.965-79.119
								C401.388,669.722,396.941,669.641,392.061,669.543z"/>
							<path style="fill:#2241CD;" d="M358.242,668.863c2.603,51.327,23.641,96.995,39.51,120.816
								c5.216,0.139,10.792,0.279,16.476,0.41c-6.126-7.656-15.321-21.963-23.952-42.262c-8.206-19.309-17.221-47.117-18.933-78.701
								C367.02,669.042,362.614,668.953,358.242,668.863z"/>
							<path style="fill:#2241CD;" d="M324.405,668.167c2.695,51.032,23.56,96.422,39.38,120.234c1.26,0.13,2.473,0.221,3.62,0.302
								c1.785,0.131,6.552,0.303,13.142,0.508c-6.117-7.608-15.403-21.987-24.116-42.484c-8.172-19.218-17.148-46.863-18.907-78.284
								C332.775,668.346,328.337,668.248,324.405,668.167z"/>
							<path style="fill:#2241CD;" d="M294.845,674.595l1.179,5.871c3.996,15.034,14.871,61.841,31.666,84.793
								c4.119,5.626,8.139,9.867,12.013,13.07c-5.225-8.034-11.302-18.998-17.115-32.69c-8.148-19.161-17.09-46.676-18.891-77.957
								c-1.359,0.033-2.621,0.164-4.135,0.451C296.769,668.658,294.845,674.595,294.845,674.595z"/>
							<path style="opacity:0.5;fill:#6C8C8C;" d="M311.763,733.439c4.496,11.98,9.826,23.468,15.927,31.821
								c4.119,5.626,8.139,9.867,12.013,13.07c9.097,7.55,17.359,9.375,24.083,10.072c1.26,0.13,2.473,0.221,3.62,0.302
								c1.785,0.131,6.552,0.303,13.142,0.508h0.009c4.88,0.138,10.759,0.303,17.196,0.466c5.216,0.139,10.792,0.279,16.476,0.41
								c5.7,0.139,11.513,0.278,17.188,0.409c5.69,0.131,11.243,0.254,16.418,0.377c16.034,0.361,28.365,0.622,29.585,0.647
								l-0.025-0.033c-21.994-5.217-33.001-23.125-39.985-40.281c-4.217,1.801-8.943,3.112-11.169,3.694
								c-16.984,4.405-35.187,4.372-52.498,2.128c-18.809-2.423-38.552-8.974-54.676-19.03
								C316.783,736.575,314.293,735.06,311.763,733.439z"/>
						</g>
						<path style="fill:#762200;" d="M473.84,820.657c0,0-47.19-148.737-47.466-149.608c-0.275-0.873-0.596-1.883-0.23-2.663
							c0.367-0.78,1.552-2.56,1.928-3.075c0.505-0.688,1.223-0.54,1.882,1.79l47.43,150.861c0,0,0.234,0.498,0.763,2.108
							c0.527,1.611,0.819,3.105,0.468,4.043c-0.352,0.938-1.23,2.343-1.523,2.87c-0.293,0.528-1.113,0.85-1.611-0.761
							C474.982,824.612,473.84,820.657,473.84,820.657z"/>
						<g>
							
								<linearGradient id="SVGID_00000111191274020406134630000013444561116642364859_" gradientUnits="userSpaceOnUse" x1="-1936.5168" y1="808.6181" x2="-1899.6326" y2="808.6181" gradientTransform="matrix(-1 0 0 1 -1480 0)">
								<stop  offset="0" style="stop-color:#CA6C21"/>
								<stop  offset="0.1389" style="stop-color:#D07630"/>
								<stop  offset="0.3413" style="stop-color:#D67F3E"/>
								<stop  offset="0.588" style="stop-color:#DA8446"/>
								<stop  offset="1" style="stop-color:#DB8649"/>
							</linearGradient>
							<path style="fill:url(#SVGID_00000111191274020406134630000013444561116642364859_);" d="M456.517,739.561
								c0,0-3.566-0.016-4.415-0.016c-0.849,0-1.222,0.643-1.586,2.165c-0.365,1.522-30.572,130.541-30.572,130.541
								c-0.178,0.985-0.361,1.926-0.299,2.591c0.061,0.667,1,1.82,1.485,2.305c0.484,0.484,0.696,0.544,1.819,0.544
								c1.122,0,5.086-0.321,5.086-0.321L456.517,739.561z"/>
							<path style="fill:#762200;" d="M457.86,748.554c0,0-27.901,122.083-28.436,124.328c-0.534,2.244-0.854,4.489-1.389,4.489
								c-0.534,0-3.314-2.138-3.314-2.992c0-0.856,29.997-130.89,30.19-131.789c0.192-0.9,1.115-3.151,1.714-3.023
								c0.601,0.13,1.865,1.779,2.08,2.273c0.215,0.492,0.3,1.372,0,2.85C458.404,746.168,457.86,748.554,457.86,748.554z"/>
						</g>
					</g>
					<path style="fill:#762200;" d="M275.231,863.075c0-1.481,0.705-2.68,1.577-2.68l145.867,5.326v5.361l-145.867-5.327
						C275.937,865.754,275.231,864.554,275.231,863.075z"/>
				</g>
				<path style="fill:#FFC53A;" d="M396.041,880.843c5.786-1.225,8.197-3.192,13.305-5.288c5.601-2.299,10.171-1.877,15.358-2.638
					c11.798-1.73,18.955,0.413,30.252,4.499c9.624,3.482,22.247,9.069,32.161,10.87c6.38,1.161,13.32-0.466,19.47,0
					c7.332,0.556,11.018,1.033,18.197-0.343c12.38-2.376,21.061,1.869,33.369-4.013c4.938-2.361,9.822-5.767,15.582-6.044
					c5.897-0.284,11.787,1.885,18.197,1.388c15.312-1.187,25.372,6.398,39.124,11.632l-262.858,1.861
					C377.512,887.145,384.095,883.377,396.041,880.843z"/>
				<path style="fill:#FFC53A;" d="M508.921,852.204c3.735-3.074,4.354-2.734,8.436-2.142c6.941,1.007,14.26,2.43,20.894,5.855
					l-38.76,3.822C500.641,857.747,506.564,854.146,508.921,852.204z"/>
				<path style="fill:#FFC53A;" d="M375.466,851.451c3.733-3.075,4.352-2.734,8.435-2.143c6.941,1.007,14.26,2.43,20.894,5.856
					l-38.76,3.822C367.185,856.994,373.109,853.392,375.466,851.451z"/>
				<path style="fill:#FFC53A;" d="M248.919,882.599c6.153-5.066,7.173-4.505,13.9-3.53c11.438,1.66,23.499,4.004,34.431,9.649
					l-63.871,6.297C235.274,891.735,245.036,885.799,248.919,882.599z"/>
				<path style="opacity:0.4;fill:#584F3F;" d="M316.227,848.119c11.147,6.063,23.717,11.245,28.744,13.879
					c65.475,34.3,163.545,36.617,235.547,36.617c72.305,0,128.575-7.141,198.612-21.048c12.767-2.535,53.588-5.627,63.052-19.801
					c-0.471-0.176-0.943-0.359-1.422-0.543c-6.19-2.394-12.478-4.063-18.836-5.239c-1.965-0.367-3.936-0.676-5.915-0.951
					c-1.409-0.196-2.817-0.373-4.232-0.528c-2.591-0.289-5.197-0.513-7.809-0.696c-21.041-1.445-42.504,0.168-63.355-2.909
					c-1.52-0.225-3.041-0.472-4.556-0.753c-0.479-0.085-0.95-0.176-1.43-0.268c-0.901-0.176-1.809-0.367-2.71-0.564
					c-1.374-0.303-2.739-0.633-4.105-0.986c-11.648-3.028-22.59-6.725-33.393-10.161c-1.788-0.571-3.577-1.134-5.366-1.676
					c-1.07-0.338-2.134-0.662-3.197-0.979c-0.521-0.155-1.042-0.31-1.563-0.465c-4.451-1.316-8.908-2.541-13.407-3.598
					c-3.275-0.775-6.57-1.465-9.908-2.036h-0.007c-1.929-0.337-3.866-0.633-5.816-0.887h-0.007
					c-0.078-0.007-0.148-0.015-0.219-0.028c-0.493-0.063-0.993-0.12-1.486-0.176c-0.028-0.007-0.063-0.014-0.091-0.014
					c-1.049-0.12-2.098-0.232-3.162-0.332c-0.359-0.028-0.725-0.063-1.091-0.091c-1.091-0.091-2.19-0.169-3.303-0.226
					c-0.119-0.007-0.239-0.014-0.367-0.021c-7.407-0.387-15.09-0.106-23.202,1.098c-1.353,0.198-2.704,0.402-4.063,0.613
					c-1.719,0.253-3.451,0.521-5.183,0.788c-0.345,0.05-0.689,0.106-1.041,0.162c-0.986,0.148-1.972,0.303-2.958,0.458
					c-4.247,0.669-8.513,1.359-12.795,2.056c-6.408,1.043-12.857,2.105-19.329,3.176c-19.09,3.155-38.4,6.309-57.566,8.859
					c-1.105,0.148-2.218,0.295-3.324,0.437c-0.126,0.021-0.253,0.035-0.373,0.05c-1.627,0.211-3.246,0.415-4.866,0.612
					c-5.457,0.676-10.9,1.289-16.323,1.831c-11.203,1.119-22.111,0.789-32.85-0.19c-2.175-0.198-4.337-0.423-6.492-0.662
					c-2.344-0.268-4.675-0.556-7.006-0.859c-0.261-0.028-0.521-0.063-0.781-0.099c-0.62-0.084-1.233-0.161-1.852-0.246
					c-0.895-0.119-1.796-0.246-2.697-0.365c-1.973-0.276-3.936-0.55-5.901-0.832c-0.381-0.056-0.761-0.105-1.141-0.154
					c-1.056-0.155-2.105-0.303-3.155-0.451c-1.619-0.232-3.239-0.458-4.859-0.676c-12.351-1.697-24.66-3.113-37.145-2.937
					c-0.936,0.014-1.873,0.035-2.81,0.064c-0.535,0.021-1.063,0.042-1.599,0.063c-1.541,0.07-3.077,0.162-4.626,0.289
					c-0.852,0.07-1.704,0.148-2.556,0.232c-21.055,2.126-40.498,6.745-60.151,10.661
					C317.93,847.789,317.079,847.957,316.227,848.119z"/>
			</g>
		</g>
		<g>
			<g>
				<polygon style="fill:#63575D;" points="548.126,869.04 553.759,869.04 484.344,401.007 477.298,402.583 				"/>
				<g>
					<path style="fill:#00ED8F;" d="M504.243,378.161c29.465-16.48,59.819-4.027,90.529,4.801l-165.848,42.681
						C451.689,406.92,477.115,393.33,504.243,378.161z"/>
					<path style="fill:#00B26F;" d="M381.184,453.547c7.456-14.402,32.712-37.699,47.232-45.038
						c13.911-7.031,20.317-4.126,35.209-2.817c12.413,1.091,29.059,6.388,36.285,4.652l-134.33,64.222
						C372.171,470.152,376.15,463.274,381.184,453.547z"/>
					<path style="fill:#00B26F;" d="M692.56,406.271c0,0,1.588,28.957,3.312,42.974c2.265,18.445,9.058,40.611,18.722,56.761
						l-23.938-0.384c-16.069-8.252-30.978-24.08-46.45-34.924c-21.944-15.379-45.159-27.48-69.609-38.849
						c-34.714-16.142-76.626-19.727-113.093-18.703C559.758,350.659,692.56,406.271,692.56,406.271z"/>
					<path style="fill:#00ED8F;" d="M295.048,542.921l1.128,86.163c0,0,29.896-39.604,31.101-20.823l14.015,3.234
						c8.552-15.911,11.851-37.403,18.441-55.112c9.347-25.114,21.601-48.247,35.285-71.481
						c19.432-32.985,51.915-59.714,82.524-79.557C371.914,418.216,295.048,542.921,295.048,542.921z"/>
					<path style="fill:#00B26F;" d="M302.085,589.764c10.779-37.579,32.615-73.872,59.856-101.519
						c32.604-33.091,58.613-56.318,100.363-77.442l15.134,36.496c2.076,16.686-1.312,35.577-0.51,52.713
						c0.866,18.576,17.511,33.922,19.964,52.415c3.978,30.014-1.237,54.362,8.879,84.235
						c-45.685-31.648-120.528-43.343-209.597-7.578C297.717,618.371,299.024,600.434,302.085,589.764z"/>
					<path style="fill:#00ED8F;" d="M468.304,518.155c-9.758-58.797-7.328-106.681-7.328-106.681
						c33.982-12.161,93.833-0.888,128.163,11.411c23.866,8.549,47.709,15.913,68.851,30.532
						c16.275,11.249,48.047,35.252,56.603,52.589c-38.991,6.886-132.887,24.165-208.821,130.656
						C490.38,603.84,474.201,553.703,468.304,518.155z"/>
					<path style="fill:#472A35;" d="M450.668,410.858c0.792-15.736,22.186-18.723,26.237-5.778
						C481.415,419.491,449.812,427.887,450.668,410.858z"/>
				</g>
			</g>
		</g>
	</g>
</g>
</svg>
